ISO-10303-21;
HEADER;
/* Generated by software containing ST-Developer
 * from STEP Tools, Inc. (www.steptools.com) 
 */

FILE_DESCRIPTION(
/* description */ (''),
/* implementation_level */ '2;1');

FILE_NAME(
/* name */ 'T v4.step',
/* time_stamp */ '2024-09-25T22:24:48-03:00',
/* author */ (''),
/* organization */ (''),
/* preprocessor_version */ 'ST-DEVELOPER v20',
/* originating_system */ 'Autodesk Translation Framework v13.20.0.188',

/* authorisation */ '');

FILE_SCHEMA (('AUTOMOTIVE_DESIGN { 1 0 10303 214 3 1 1 }'));
ENDSEC;

DATA;
#10=MECHANICAL_DESIGN_GEOMETRIC_PRESENTATION_REPRESENTATION('',(#17),#519);
#11=ITEM_DEFINED_TRANSFORMATION($,$,#307,#343);
#12=(
REPRESENTATION_RELATIONSHIP($,$,#530,#529)
REPRESENTATION_RELATIONSHIP_WITH_TRANSFORMATION(#11)
SHAPE_REPRESENTATION_RELATIONSHIP()
);
#13=CONTEXT_DEPENDENT_SHAPE_REPRESENTATION(#12,#528);
#14=NEXT_ASSEMBLY_USAGE_OCCURRENCE('adaptador:1','adaptador:1',
'adaptador:1',#532,#533,'adaptador:1');
#15=SHAPE_REPRESENTATION_RELATIONSHIP('SRR','None',#530,#16);
#16=ADVANCED_BREP_SHAPE_REPRESENTATION('',(#18),#518);
#17=STYLED_ITEM('',(#544),#18);
#18=MANIFOLD_SOLID_BREP('Body1',#293);
#19=FACE_BOUND('',#56,.T.);
#20=FACE_BOUND('',#69,.T.);
#21=FACE_BOUND('',#70,.T.);
#22=FACE_BOUND('',#71,.T.);
#23=FACE_BOUND('',#72,.T.);
#24=FACE_BOUND('',#73,.T.);
#25=FACE_BOUND('',#74,.T.);
#26=FACE_BOUND('',#75,.T.);
#27=FACE_BOUND('',#77,.T.);
#28=FACE_BOUND('',#78,.T.);
#29=FACE_BOUND('',#79,.T.);
#30=FACE_BOUND('',#80,.T.);
#31=FACE_BOUND('',#81,.T.);
#32=FACE_BOUND('',#82,.T.);
#33=FACE_BOUND('',#83,.T.);
#34=PLANE('',#311);
#35=PLANE('',#336);
#36=PLANE('',#340);
#37=PLANE('',#341);
#38=PLANE('',#342);
#39=FACE_OUTER_BOUND('',#54,.T.);
#40=FACE_OUTER_BOUND('',#55,.T.);
#41=FACE_OUTER_BOUND('',#57,.T.);
#42=FACE_OUTER_BOUND('',#58,.T.);
#43=FACE_OUTER_BOUND('',#59,.T.);
#44=FACE_OUTER_BOUND('',#60,.T.);
#45=FACE_OUTER_BOUND('',#61,.T.);
#46=FACE_OUTER_BOUND('',#62,.T.);
#47=FACE_OUTER_BOUND('',#63,.T.);
#48=FACE_OUTER_BOUND('',#64,.T.);
#49=FACE_OUTER_BOUND('',#65,.T.);
#50=FACE_OUTER_BOUND('',#66,.T.);
#51=FACE_OUTER_BOUND('',#67,.T.);
#52=FACE_OUTER_BOUND('',#68,.T.);
#53=FACE_OUTER_BOUND('',#76,.T.);
#54=EDGE_LOOP('',(#196,#197,#198,#199));
#55=EDGE_LOOP('',(#200));
#56=EDGE_LOOP('',(#201));
#57=EDGE_LOOP('',(#202,#203,#204,#205));
#58=EDGE_LOOP('',(#206,#207,#208,#209));
#59=EDGE_LOOP('',(#210,#211,#212,#213));
#60=EDGE_LOOP('',(#214,#215,#216,#217));
#61=EDGE_LOOP('',(#218,#219,#220,#221));
#62=EDGE_LOOP('',(#222,#223,#224,#225));
#63=EDGE_LOOP('',(#226,#227,#228,#229));
#64=EDGE_LOOP('',(#230,#231,#232,#233));
#65=EDGE_LOOP('',(#234,#235,#236,#237));
#66=EDGE_LOOP('',(#238,#239,#240,#241));
#67=EDGE_LOOP('',(#242,#243,#244,#245));
#68=EDGE_LOOP('',(#246,#247,#248,#249));
#69=EDGE_LOOP('',(#250));
#70=EDGE_LOOP('',(#251));
#71=EDGE_LOOP('',(#252));
#72=EDGE_LOOP('',(#253));
#73=EDGE_LOOP('',(#254));
#74=EDGE_LOOP('',(#255));
#75=EDGE_LOOP('',(#256));
#76=EDGE_LOOP('',(#257,#258,#259,#260));
#77=EDGE_LOOP('',(#261));
#78=EDGE_LOOP('',(#262));
#79=EDGE_LOOP('',(#263));
#80=EDGE_LOOP('',(#264));
#81=EDGE_LOOP('',(#265));
#82=EDGE_LOOP('',(#266));
#83=EDGE_LOOP('',(#267));
#84=LINE('',#442,#100);
#85=LINE('',#449,#101);
#86=LINE('',#455,#102);
#87=LINE('',#461,#103);
#88=LINE('',#467,#104);
#89=LINE('',#473,#105);
#90=LINE('',#479,#106);
#91=LINE('',#485,#107);
#92=LINE('',#492,#108);
#93=LINE('',#495,#109);
#94=LINE('',#498,#110);
#95=LINE('',#500,#111);
#96=LINE('',#501,#112);
#97=LINE('',#507,#113);
#98=LINE('',#509,#114);
#99=LINE('',#510,#115);
#100=VECTOR('',#352,15.7);
#101=VECTOR('',#361,12.7);
#102=VECTOR('',#368,2.10000000000001);
#103=VECTOR('',#375,2.1);
#104=VECTOR('',#382,2.1);
#105=VECTOR('',#389,2.1);
#106=VECTOR('',#396,2.10000000000001);
#107=VECTOR('',#403,2.10000000000001);
#108=VECTOR('',#410,10.);
#109=VECTOR('',#413,10.);
#110=VECTOR('',#416,10.);
#111=VECTOR('',#417,10.);
#112=VECTOR('',#418,10.);
#113=VECTOR('',#425,10.);
#114=VECTOR('',#428,10.);
#115=VECTOR('',#429,10.);
#116=CIRCLE('',#309,15.7);
#117=CIRCLE('',#310,15.7);
#118=CIRCLE('',#312,12.7);
#119=CIRCLE('',#314,12.7);
#120=CIRCLE('',#316,2.10000000000001);
#121=CIRCLE('',#317,2.10000000000001);
#122=CIRCLE('',#319,2.1);
#123=CIRCLE('',#320,2.1);
#124=CIRCLE('',#322,2.1);
#125=CIRCLE('',#323,2.1);
#126=CIRCLE('',#325,2.1);
#127=CIRCLE('',#326,2.1);
#128=CIRCLE('',#328,2.10000000000001);
#129=CIRCLE('',#329,2.10000000000001);
#130=CIRCLE('',#331,2.10000000000001);
#131=CIRCLE('',#332,2.10000000000001);
#132=CIRCLE('',#334,24.);
#133=CIRCLE('',#335,24.);
#134=CIRCLE('',#338,24.);
#135=CIRCLE('',#339,24.);
#136=VERTEX_POINT('',#439);
#137=VERTEX_POINT('',#441);
#138=VERTEX_POINT('',#445);
#139=VERTEX_POINT('',#448);
#140=VERTEX_POINT('',#452);
#141=VERTEX_POINT('',#454);
#142=VERTEX_POINT('',#458);
#143=VERTEX_POINT('',#460);
#144=VERTEX_POINT('',#464);
#145=VERTEX_POINT('',#466);
#146=VERTEX_POINT('',#470);
#147=VERTEX_POINT('',#472);
#148=VERTEX_POINT('',#476);
#149=VERTEX_POINT('',#478);
#150=VERTEX_POINT('',#482);
#151=VERTEX_POINT('',#484);
#152=VERTEX_POINT('',#488);
#153=VERTEX_POINT('',#489);
#154=VERTEX_POINT('',#491);
#155=VERTEX_POINT('',#493);
#156=VERTEX_POINT('',#497);
#157=VERTEX_POINT('',#499);
#158=VERTEX_POINT('',#503);
#159=VERTEX_POINT('',#505);
#160=EDGE_CURVE('',#136,#136,#116,.T.);
#161=EDGE_CURVE('',#136,#137,#84,.T.);
#162=EDGE_CURVE('',#137,#137,#117,.T.);
#163=EDGE_CURVE('',#138,#138,#118,.T.);
#164=EDGE_CURVE('',#138,#139,#85,.T.);
#165=EDGE_CURVE('',#139,#139,#119,.T.);
#166=EDGE_CURVE('',#140,#140,#120,.T.);
#167=EDGE_CURVE('',#140,#141,#86,.T.);
#168=EDGE_CURVE('',#141,#141,#121,.T.);
#169=EDGE_CURVE('',#142,#142,#122,.T.);
#170=EDGE_CURVE('',#142,#143,#87,.T.);
#171=EDGE_CURVE('',#143,#143,#123,.T.);
#172=EDGE_CURVE('',#144,#144,#124,.T.);
#173=EDGE_CURVE('',#144,#145,#88,.T.);
#174=EDGE_CURVE('',#145,#145,#125,.T.);
#175=EDGE_CURVE('',#146,#146,#126,.T.);
#176=EDGE_CURVE('',#146,#147,#89,.T.);
#177=EDGE_CURVE('',#147,#147,#127,.T.);
#178=EDGE_CURVE('',#148,#148,#128,.T.);
#179=EDGE_CURVE('',#148,#149,#90,.T.);
#180=EDGE_CURVE('',#149,#149,#129,.T.);
#181=EDGE_CURVE('',#150,#150,#130,.T.);
#182=EDGE_CURVE('',#150,#151,#91,.T.);
#183=EDGE_CURVE('',#151,#151,#131,.T.);
#184=EDGE_CURVE('',#152,#153,#132,.T.);
#185=EDGE_CURVE('',#153,#154,#92,.T.);
#186=EDGE_CURVE('',#155,#154,#133,.T.);
#187=EDGE_CURVE('',#152,#155,#93,.T.);
#188=EDGE_CURVE('',#156,#152,#94,.T.);
#189=EDGE_CURVE('',#157,#155,#95,.T.);
#190=EDGE_CURVE('',#156,#157,#96,.T.);
#191=EDGE_CURVE('',#158,#156,#134,.T.);
#192=EDGE_CURVE('',#159,#157,#135,.T.);
#193=EDGE_CURVE('',#158,#159,#97,.T.);
#194=EDGE_CURVE('',#153,#158,#98,.T.);
#195=EDGE_CURVE('',#154,#159,#99,.T.);
#196=ORIENTED_EDGE('',*,*,#160,.F.);
#197=ORIENTED_EDGE('',*,*,#161,.T.);
#198=ORIENTED_EDGE('',*,*,#162,.F.);
#199=ORIENTED_EDGE('',*,*,#161,.F.);
#200=ORIENTED_EDGE('',*,*,#160,.T.);
#201=ORIENTED_EDGE('',*,*,#163,.T.);
#202=ORIENTED_EDGE('',*,*,#163,.F.);
#203=ORIENTED_EDGE('',*,*,#164,.T.);
#204=ORIENTED_EDGE('',*,*,#165,.T.);
#205=ORIENTED_EDGE('',*,*,#164,.F.);
#206=ORIENTED_EDGE('',*,*,#166,.F.);
#207=ORIENTED_EDGE('',*,*,#167,.T.);
#208=ORIENTED_EDGE('',*,*,#168,.T.);
#209=ORIENTED_EDGE('',*,*,#167,.F.);
#210=ORIENTED_EDGE('',*,*,#169,.F.);
#211=ORIENTED_EDGE('',*,*,#170,.T.);
#212=ORIENTED_EDGE('',*,*,#171,.T.);
#213=ORIENTED_EDGE('',*,*,#170,.F.);
#214=ORIENTED_EDGE('',*,*,#172,.F.);
#215=ORIENTED_EDGE('',*,*,#173,.T.);
#216=ORIENTED_EDGE('',*,*,#174,.T.);
#217=ORIENTED_EDGE('',*,*,#173,.F.);
#218=ORIENTED_EDGE('',*,*,#175,.F.);
#219=ORIENTED_EDGE('',*,*,#176,.T.);
#220=ORIENTED_EDGE('',*,*,#177,.T.);
#221=ORIENTED_EDGE('',*,*,#176,.F.);
#222=ORIENTED_EDGE('',*,*,#178,.F.);
#223=ORIENTED_EDGE('',*,*,#179,.T.);
#224=ORIENTED_EDGE('',*,*,#180,.T.);
#225=ORIENTED_EDGE('',*,*,#179,.F.);
#226=ORIENTED_EDGE('',*,*,#181,.F.);
#227=ORIENTED_EDGE('',*,*,#182,.T.);
#228=ORIENTED_EDGE('',*,*,#183,.T.);
#229=ORIENTED_EDGE('',*,*,#182,.F.);
#230=ORIENTED_EDGE('',*,*,#184,.T.);
#231=ORIENTED_EDGE('',*,*,#185,.T.);
#232=ORIENTED_EDGE('',*,*,#186,.F.);
#233=ORIENTED_EDGE('',*,*,#187,.F.);
#234=ORIENTED_EDGE('',*,*,#188,.T.);
#235=ORIENTED_EDGE('',*,*,#187,.T.);
#236=ORIENTED_EDGE('',*,*,#189,.F.);
#237=ORIENTED_EDGE('',*,*,#190,.F.);
#238=ORIENTED_EDGE('',*,*,#191,.T.);
#239=ORIENTED_EDGE('',*,*,#190,.T.);
#240=ORIENTED_EDGE('',*,*,#192,.F.);
#241=ORIENTED_EDGE('',*,*,#193,.F.);
#242=ORIENTED_EDGE('',*,*,#194,.T.);
#243=ORIENTED_EDGE('',*,*,#193,.T.);
#244=ORIENTED_EDGE('',*,*,#195,.F.);
#245=ORIENTED_EDGE('',*,*,#185,.F.);
#246=ORIENTED_EDGE('',*,*,#195,.T.);
#247=ORIENTED_EDGE('',*,*,#192,.T.);
#248=ORIENTED_EDGE('',*,*,#189,.T.);
#249=ORIENTED_EDGE('',*,*,#186,.T.);
#250=ORIENTED_EDGE('',*,*,#162,.T.);
#251=ORIENTED_EDGE('',*,*,#181,.T.);
#252=ORIENTED_EDGE('',*,*,#178,.T.);
#253=ORIENTED_EDGE('',*,*,#175,.T.);
#254=ORIENTED_EDGE('',*,*,#172,.T.);
#255=ORIENTED_EDGE('',*,*,#169,.T.);
#256=ORIENTED_EDGE('',*,*,#166,.T.);
#257=ORIENTED_EDGE('',*,*,#194,.F.);
#258=ORIENTED_EDGE('',*,*,#184,.F.);
#259=ORIENTED_EDGE('',*,*,#188,.F.);
#260=ORIENTED_EDGE('',*,*,#191,.F.);
#261=ORIENTED_EDGE('',*,*,#183,.F.);
#262=ORIENTED_EDGE('',*,*,#180,.F.);
#263=ORIENTED_EDGE('',*,*,#177,.F.);
#264=ORIENTED_EDGE('',*,*,#174,.F.);
#265=ORIENTED_EDGE('',*,*,#171,.F.);
#266=ORIENTED_EDGE('',*,*,#168,.F.);
#267=ORIENTED_EDGE('',*,*,#165,.F.);
#268=CYLINDRICAL_SURFACE('',#308,15.7);
#269=CYLINDRICAL_SURFACE('',#313,12.7);
#270=CYLINDRICAL_SURFACE('',#315,2.10000000000001);
#271=CYLINDRICAL_SURFACE('',#318,2.1);
#272=CYLINDRICAL_SURFACE('',#321,2.1);
#273=CYLINDRICAL_SURFACE('',#324,2.1);
#274=CYLINDRICAL_SURFACE('',#327,2.10000000000001);
#275=CYLINDRICAL_SURFACE('',#330,2.10000000000001);
#276=CYLINDRICAL_SURFACE('',#333,24.);
#277=CYLINDRICAL_SURFACE('',#337,24.);
#278=ADVANCED_FACE('',(#39),#268,.T.);
#279=ADVANCED_FACE('',(#40,#19),#34,.T.);
#280=ADVANCED_FACE('',(#41),#269,.F.);
#281=ADVANCED_FACE('',(#42),#270,.F.);
#282=ADVANCED_FACE('',(#43),#271,.F.);
#283=ADVANCED_FACE('',(#44),#272,.F.);
#284=ADVANCED_FACE('',(#45),#273,.F.);
#285=ADVANCED_FACE('',(#46),#274,.F.);
#286=ADVANCED_FACE('',(#47),#275,.F.);
#287=ADVANCED_FACE('',(#48),#276,.T.);
#288=ADVANCED_FACE('',(#49),#35,.T.);
#289=ADVANCED_FACE('',(#50),#277,.T.);
#290=ADVANCED_FACE('',(#51),#36,.T.);
#291=ADVANCED_FACE('',(#52,#20,#21,#22,#23,#24,#25,#26),#37,.T.);
#292=ADVANCED_FACE('',(#53,#27,#28,#29,#30,#31,#32,#33),#38,.F.);
#293=CLOSED_SHELL('',(#278,#279,#280,#281,#282,#283,#284,#285,#286,#287,
#288,#289,#290,#291,#292));
#294=DERIVED_UNIT_ELEMENT(#296,1.);
#295=DERIVED_UNIT_ELEMENT(#521,-3.);
#296=(
MASS_UNIT()
NAMED_UNIT(*)
SI_UNIT(.KILO.,.GRAM.)
);
#297=DERIVED_UNIT((#294,#295));
#298=MEASURE_REPRESENTATION_ITEM('density measure',
POSITIVE_RATIO_MEASURE(7850.),#297);
#299=PROPERTY_DEFINITION_REPRESENTATION(#304,#301);
#300=PROPERTY_DEFINITION_REPRESENTATION(#305,#302);
#301=REPRESENTATION('material name',(#303),#518);
#302=REPRESENTATION('density',(#298),#518);
#303=DESCRIPTIVE_REPRESENTATION_ITEM('Steel','Steel');
#304=PROPERTY_DEFINITION('material property','material name',#533);
#305=PROPERTY_DEFINITION('material property','density of part',#533);
#306=AXIS2_PLACEMENT_3D('',#436,#344,#345);
#307=AXIS2_PLACEMENT_3D('',#437,#346,#347);
#308=AXIS2_PLACEMENT_3D('',#438,#348,#349);
#309=AXIS2_PLACEMENT_3D('',#440,#350,#351);
#310=AXIS2_PLACEMENT_3D('',#443,#353,#354);
#311=AXIS2_PLACEMENT_3D('',#444,#355,#356);
#312=AXIS2_PLACEMENT_3D('',#446,#357,#358);
#313=AXIS2_PLACEMENT_3D('',#447,#359,#360);
#314=AXIS2_PLACEMENT_3D('',#450,#362,#363);
#315=AXIS2_PLACEMENT_3D('',#451,#364,#365);
#316=AXIS2_PLACEMENT_3D('',#453,#366,#367);
#317=AXIS2_PLACEMENT_3D('',#456,#369,#370);
#318=AXIS2_PLACEMENT_3D('',#457,#371,#372);
#319=AXIS2_PLACEMENT_3D('',#459,#373,#374);
#320=AXIS2_PLACEMENT_3D('',#462,#376,#377);
#321=AXIS2_PLACEMENT_3D('',#463,#378,#379);
#322=AXIS2_PLACEMENT_3D('',#465,#380,#381);
#323=AXIS2_PLACEMENT_3D('',#468,#383,#384);
#324=AXIS2_PLACEMENT_3D('',#469,#385,#386);
#325=AXIS2_PLACEMENT_3D('',#471,#387,#388);
#326=AXIS2_PLACEMENT_3D('',#474,#390,#391);
#327=AXIS2_PLACEMENT_3D('',#475,#392,#393);
#328=AXIS2_PLACEMENT_3D('',#477,#394,#395);
#329=AXIS2_PLACEMENT_3D('',#480,#397,#398);
#330=AXIS2_PLACEMENT_3D('',#481,#399,#400);
#331=AXIS2_PLACEMENT_3D('',#483,#401,#402);
#332=AXIS2_PLACEMENT_3D('',#486,#404,#405);
#333=AXIS2_PLACEMENT_3D('',#487,#406,#407);
#334=AXIS2_PLACEMENT_3D('',#490,#408,#409);
#335=AXIS2_PLACEMENT_3D('',#494,#411,#412);
#336=AXIS2_PLACEMENT_3D('',#496,#414,#415);
#337=AXIS2_PLACEMENT_3D('',#502,#419,#420);
#338=AXIS2_PLACEMENT_3D('',#504,#421,#422);
#339=AXIS2_PLACEMENT_3D('',#506,#423,#424);
#340=AXIS2_PLACEMENT_3D('',#508,#426,#427);
#341=AXIS2_PLACEMENT_3D('',#511,#430,#431);
#342=AXIS2_PLACEMENT_3D('',#512,#432,#433);
#343=AXIS2_PLACEMENT_3D('',#513,#434,#435);
#344=DIRECTION('axis',(0.,0.,1.));
#345=DIRECTION('refdir',(1.,0.,0.));
#346=DIRECTION('axis',(0.,0.,1.));
#347=DIRECTION('refdir',(1.,0.,0.));
#348=DIRECTION('center_axis',(0.,0.,-1.));
#349=DIRECTION('ref_axis',(1.,0.,0.));
#350=DIRECTION('center_axis',(0.,0.,-1.));
#351=DIRECTION('ref_axis',(1.,0.,0.));
#352=DIRECTION('',(0.,0.,1.));
#353=DIRECTION('center_axis',(0.,0.,1.));
#354=DIRECTION('ref_axis',(1.,0.,0.));
#355=DIRECTION('center_axis',(0.,0.,-1.));
#356=DIRECTION('ref_axis',(-1.,0.,0.));
#357=DIRECTION('center_axis',(0.,0.,1.));
#358=DIRECTION('ref_axis',(1.,0.,0.));
#359=DIRECTION('center_axis',(0.,0.,-1.));
#360=DIRECTION('ref_axis',(1.,0.,0.));
#361=DIRECTION('',(0.,0.,1.));
#362=DIRECTION('center_axis',(0.,0.,1.));
#363=DIRECTION('ref_axis',(1.,0.,0.));
#364=DIRECTION('center_axis',(0.,0.,-1.));
#365=DIRECTION('ref_axis',(1.,0.,0.));
#366=DIRECTION('center_axis',(0.,0.,1.));
#367=DIRECTION('ref_axis',(1.,0.,0.));
#368=DIRECTION('',(0.,0.,1.));
#369=DIRECTION('center_axis',(0.,0.,1.));
#370=DIRECTION('ref_axis',(1.,0.,0.));
#371=DIRECTION('center_axis',(0.,0.,-1.));
#372=DIRECTION('ref_axis',(1.,0.,0.));
#373=DIRECTION('center_axis',(0.,0.,1.));
#374=DIRECTION('ref_axis',(1.,0.,0.));
#375=DIRECTION('',(0.,0.,1.));
#376=DIRECTION('center_axis',(0.,0.,1.));
#377=DIRECTION('ref_axis',(1.,0.,0.));
#378=DIRECTION('center_axis',(0.,0.,-1.));
#379=DIRECTION('ref_axis',(1.,0.,0.));
#380=DIRECTION('center_axis',(0.,0.,1.));
#381=DIRECTION('ref_axis',(1.,0.,0.));
#382=DIRECTION('',(0.,0.,1.));
#383=DIRECTION('center_axis',(0.,0.,1.));
#384=DIRECTION('ref_axis',(1.,0.,0.));
#385=DIRECTION('center_axis',(0.,0.,-1.));
#386=DIRECTION('ref_axis',(1.,0.,0.));
#387=DIRECTION('center_axis',(0.,0.,1.));
#388=DIRECTION('ref_axis',(1.,0.,0.));
#389=DIRECTION('',(0.,0.,1.));
#390=DIRECTION('center_axis',(0.,0.,1.));
#391=DIRECTION('ref_axis',(1.,0.,0.));
#392=DIRECTION('center_axis',(0.,0.,-1.));
#393=DIRECTION('ref_axis',(1.,0.,0.));
#394=DIRECTION('center_axis',(0.,0.,1.));
#395=DIRECTION('ref_axis',(1.,0.,0.));
#396=DIRECTION('',(0.,0.,1.));
#397=DIRECTION('center_axis',(0.,0.,1.));
#398=DIRECTION('ref_axis',(1.,0.,0.));
#399=DIRECTION('center_axis',(0.,0.,-1.));
#400=DIRECTION('ref_axis',(1.,0.,0.));
#401=DIRECTION('center_axis',(0.,0.,1.));
#402=DIRECTION('ref_axis',(1.,0.,0.));
#403=DIRECTION('',(0.,0.,1.));
#404=DIRECTION('center_axis',(0.,0.,1.));
#405=DIRECTION('ref_axis',(1.,0.,0.));
#406=DIRECTION('center_axis',(0.,0.,-1.));
#407=DIRECTION('ref_axis',(-0.833333333333333,0.552770798392567,0.));
#408=DIRECTION('center_axis',(0.,0.,-1.));
#409=DIRECTION('ref_axis',(-0.833333333333333,0.552770798392567,0.));
#410=DIRECTION('',(0.,0.,-1.));
#411=DIRECTION('center_axis',(0.,0.,-1.));
#412=DIRECTION('ref_axis',(-0.833333333333333,0.552770798392567,0.));
#413=DIRECTION('',(0.,0.,-1.));
#414=DIRECTION('center_axis',(-1.,0.,0.));
#415=DIRECTION('ref_axis',(0.,1.,0.));
#416=DIRECTION('',(0.,1.,0.));
#417=DIRECTION('',(0.,1.,0.));
#418=DIRECTION('',(0.,0.,-1.));
#419=DIRECTION('center_axis',(0.,0.,-1.));
#420=DIRECTION('ref_axis',(0.833333333333333,-0.552770798392567,0.));
#421=DIRECTION('center_axis',(0.,0.,-1.));
#422=DIRECTION('ref_axis',(0.833333333333333,-0.552770798392567,0.));
#423=DIRECTION('center_axis',(0.,0.,-1.));
#424=DIRECTION('ref_axis',(0.833333333333333,-0.552770798392567,0.));
#425=DIRECTION('',(0.,0.,-1.));
#426=DIRECTION('center_axis',(1.,0.,0.));
#427=DIRECTION('ref_axis',(0.,-1.,0.));
#428=DIRECTION('',(0.,-1.,0.));
#429=DIRECTION('',(0.,-1.,0.));
#430=DIRECTION('center_axis',(0.,0.,-1.));
#431=DIRECTION('ref_axis',(1.,0.,0.));
#432=DIRECTION('center_axis',(0.,0.,-1.));
#433=DIRECTION('ref_axis',(1.,0.,0.));
#434=DIRECTION('',(0.,0.,1.));
#435=DIRECTION('',(1.,0.,0.));
#436=CARTESIAN_POINT('',(0.,0.,0.));
#437=CARTESIAN_POINT('',(0.,0.,0.));
#438=CARTESIAN_POINT('Origin',(79.9398629088711,4.32481965826495,-16.));
#439=CARTESIAN_POINT('',(64.2398629088711,4.32481965826495,-46.));
#440=CARTESIAN_POINT('Origin',(79.9398629088711,4.32481965826495,-46.));
#441=CARTESIAN_POINT('',(64.2398629088711,4.32481965826495,-16.));
#442=CARTESIAN_POINT('',(64.2398629088711,4.32481965826495,-16.));
#443=CARTESIAN_POINT('Origin',(79.9398629088711,4.32481965826495,-16.));
#444=CARTESIAN_POINT('Origin',(79.9398629088711,4.32481965826495,-46.));
#445=CARTESIAN_POINT('',(67.2398629088711,4.32481965826495,-46.));
#446=CARTESIAN_POINT('Origin',(79.9398629088711,4.32481965826495,-46.));
#447=CARTESIAN_POINT('Origin',(79.9398629088711,4.32481965826495,-10.));
#448=CARTESIAN_POINT('',(67.2398629088711,4.32481965826495,-10.));
#449=CARTESIAN_POINT('',(67.2398629088711,4.32481965826495,-10.));
#450=CARTESIAN_POINT('Origin',(79.9398629088711,4.32481965826495,-10.));
#451=CARTESIAN_POINT('Origin',(93.3748917514155,17.7598485008094,-10.));
#452=CARTESIAN_POINT('',(91.2748917514155,17.7598485008094,-16.));
#453=CARTESIAN_POINT('Origin',(93.3748917514155,17.7598485008094,-16.));
#454=CARTESIAN_POINT('',(91.2748917514155,17.7598485008094,-10.));
#455=CARTESIAN_POINT('',(91.2748917514155,17.7598485008094,-10.));
#456=CARTESIAN_POINT('Origin',(93.3748917514155,17.7598485008094,-10.));
#457=CARTESIAN_POINT('Origin',(66.5048340663268,-9.11020918427947,-10.));
#458=CARTESIAN_POINT('',(64.4048340663268,-9.11020918427947,-16.));
#459=CARTESIAN_POINT('Origin',(66.5048340663268,-9.11020918427947,-16.));
#460=CARTESIAN_POINT('',(64.4048340663268,-9.11020918427947,-10.));
#461=CARTESIAN_POINT('',(64.4048340663268,-9.11020918427947,-10.));
#462=CARTESIAN_POINT('Origin',(66.5048340663268,-9.11020918427947,-10.));
#463=CARTESIAN_POINT('Origin',(66.5048340663267,17.7598485008094,-10.));
#464=CARTESIAN_POINT('',(64.4048340663267,17.7598485008094,-16.));
#465=CARTESIAN_POINT('Origin',(66.5048340663267,17.7598485008094,-16.));
#466=CARTESIAN_POINT('',(64.4048340663267,17.7598485008094,-10.));
#467=CARTESIAN_POINT('',(64.4048340663267,17.7598485008094,-10.));
#468=CARTESIAN_POINT('Origin',(66.5048340663267,17.7598485008094,-10.));
#469=CARTESIAN_POINT('Origin',(79.9398629088711,23.324819658265,-10.));
#470=CARTESIAN_POINT('',(77.8398629088711,23.324819658265,-16.));
#471=CARTESIAN_POINT('Origin',(79.9398629088711,23.324819658265,-16.));
#472=CARTESIAN_POINT('',(77.8398629088711,23.324819658265,-10.));
#473=CARTESIAN_POINT('',(77.8398629088711,23.324819658265,-10.));
#474=CARTESIAN_POINT('Origin',(79.9398629088711,23.324819658265,-10.));
#475=CARTESIAN_POINT('Origin',(93.3748917514155,-9.11020918427944,-10.));
#476=CARTESIAN_POINT('',(91.2748917514155,-9.11020918427944,-16.));
#477=CARTESIAN_POINT('Origin',(93.3748917514155,-9.11020918427944,-16.));
#478=CARTESIAN_POINT('',(91.2748917514155,-9.11020918427944,-10.));
#479=CARTESIAN_POINT('',(91.2748917514155,-9.11020918427944,-10.));
#480=CARTESIAN_POINT('Origin',(93.3748917514155,-9.11020918427944,-10.));
#481=CARTESIAN_POINT('Origin',(79.9398629088711,-14.675180341735,-10.));
#482=CARTESIAN_POINT('',(77.8398629088711,-14.675180341735,-16.));
#483=CARTESIAN_POINT('Origin',(79.9398629088711,-14.675180341735,-16.));
#484=CARTESIAN_POINT('',(77.8398629088711,-14.675180341735,-10.));
#485=CARTESIAN_POINT('',(77.8398629088711,-14.675180341735,-10.));
#486=CARTESIAN_POINT('Origin',(79.9398629088711,-14.675180341735,-10.));
#487=CARTESIAN_POINT('Origin',(79.9398629088711,4.32481965826495,-10.));
#488=CARTESIAN_POINT('',(59.9398629088711,17.5913188196866,-10.));
#489=CARTESIAN_POINT('',(99.9398629088711,17.5913188196866,-10.));
#490=CARTESIAN_POINT('Origin',(79.9398629088711,4.32481965826495,-10.));
#491=CARTESIAN_POINT('',(99.9398629088711,17.5913188196866,-16.));
#492=CARTESIAN_POINT('',(99.9398629088711,17.5913188196866,-10.));
#493=CARTESIAN_POINT('',(59.9398629088711,17.5913188196866,-16.));
#494=CARTESIAN_POINT('Origin',(79.9398629088711,4.32481965826495,-16.));
#495=CARTESIAN_POINT('',(59.9398629088711,17.5913188196866,-10.));
#496=CARTESIAN_POINT('Origin',(59.9398629088711,-8.94167950315667,-10.));
#497=CARTESIAN_POINT('',(59.9398629088711,-8.94167950315667,-10.));
#498=CARTESIAN_POINT('',(59.9398629088711,-8.94167950315667,-10.));
#499=CARTESIAN_POINT('',(59.9398629088711,-8.94167950315667,-16.));
#500=CARTESIAN_POINT('',(59.9398629088711,-8.94167950315667,-16.));
#501=CARTESIAN_POINT('',(59.9398629088711,-8.94167950315667,-10.));
#502=CARTESIAN_POINT('Origin',(79.9398629088711,4.32481965826495,-10.));
#503=CARTESIAN_POINT('',(99.9398629088711,-8.94167950315665,-10.));
#504=CARTESIAN_POINT('Origin',(79.9398629088711,4.32481965826495,-10.));
#505=CARTESIAN_POINT('',(99.9398629088711,-8.94167950315665,-16.));
#506=CARTESIAN_POINT('Origin',(79.9398629088711,4.32481965826495,-16.));
#507=CARTESIAN_POINT('',(99.9398629088711,-8.94167950315665,-10.));
#508=CARTESIAN_POINT('Origin',(99.9398629088711,17.5913188196866,-10.));
#509=CARTESIAN_POINT('',(99.9398629088711,17.5913188196866,-10.));
#510=CARTESIAN_POINT('',(99.9398629088711,17.5913188196866,-16.));
#511=CARTESIAN_POINT('Origin',(79.9398629088711,4.32481965826495,-16.));
#512=CARTESIAN_POINT('Origin',(79.9398629088711,4.32481965826495,-10.));
#513=CARTESIAN_POINT('',(0.,0.,0.));
#514=UNCERTAINTY_MEASURE_WITH_UNIT(LENGTH_MEASURE(0.01),#520,
'DISTANCE_ACCURACY_VALUE',
'Maximum model space distance between geometric entities at asserted c
onnectivities');
#515=UNCERTAINTY_MEASURE_WITH_UNIT(LENGTH_MEASURE(0.01),#520,
'DISTANCE_ACCURACY_VALUE',
'Maximum model space distance between geometric entities at asserted c
onnectivities');
#516=UNCERTAINTY_MEASURE_WITH_UNIT(LENGTH_MEASURE(0.01),#520,
'DISTANCE_ACCURACY_VALUE',
'Maximum model space distance between geometric entities at asserted c
onnectivities');
#517=(
GEOMETRIC_REPRESENTATION_CONTEXT(3)
GLOBAL_UNCERTAINTY_ASSIGNED_CONTEXT((#514))
GLOBAL_UNIT_ASSIGNED_CONTEXT((#520,#522,#523))
REPRESENTATION_CONTEXT('','3D')
);
#518=(
GEOMETRIC_REPRESENTATION_CONTEXT(3)
GLOBAL_UNCERTAINTY_ASSIGNED_CONTEXT((#515))
GLOBAL_UNIT_ASSIGNED_CONTEXT((#520,#522,#523))
REPRESENTATION_CONTEXT('','3D')
);
#519=(
GEOMETRIC_REPRESENTATION_CONTEXT(3)
GLOBAL_UNCERTAINTY_ASSIGNED_CONTEXT((#516))
GLOBAL_UNIT_ASSIGNED_CONTEXT((#520,#522,#523))
REPRESENTATION_CONTEXT('','3D')
);
#520=(
LENGTH_UNIT()
NAMED_UNIT(*)
SI_UNIT(.MILLI.,.METRE.)
);
#521=(
LENGTH_UNIT()
NAMED_UNIT(*)
SI_UNIT($,.METRE.)
);
#522=(
NAMED_UNIT(*)
PLANE_ANGLE_UNIT()
SI_UNIT($,.RADIAN.)
);
#523=(
NAMED_UNIT(*)
SI_UNIT($,.STERADIAN.)
SOLID_ANGLE_UNIT()
);
#524=SHAPE_DEFINITION_REPRESENTATION(#526,#529);
#525=SHAPE_DEFINITION_REPRESENTATION(#527,#530);
#526=PRODUCT_DEFINITION_SHAPE('',$,#532);
#527=PRODUCT_DEFINITION_SHAPE('',$,#533);
#528=PRODUCT_DEFINITION_SHAPE($,$,#14);
#529=SHAPE_REPRESENTATION('',(#306,#343),#517);
#530=SHAPE_REPRESENTATION('',(#307),#518);
#531=PRODUCT_DEFINITION_CONTEXT('part definition',#539,'design');
#532=PRODUCT_DEFINITION('T','T v4',#534,#531);
#533=PRODUCT_DEFINITION('adaptador','adaptador',#535,#531);
#534=PRODUCT_DEFINITION_FORMATION('',$,#541);
#535=PRODUCT_DEFINITION_FORMATION('',$,#542);
#536=PRODUCT_RELATED_PRODUCT_CATEGORY('T v4','T v4',(#541));
#537=PRODUCT_RELATED_PRODUCT_CATEGORY('adaptador','adaptador',(#542));
#538=APPLICATION_PROTOCOL_DEFINITION('international standard',
'automotive_design',2009,#539);
#539=APPLICATION_CONTEXT(
'Core Data for Automotive Mechanical Design Process');
#540=PRODUCT_CONTEXT('part definition',#539,'mechanical');
#541=PRODUCT('T','T v4',$,(#540));
#542=PRODUCT('adaptador','adaptador',$,(#540));
#543=PRESENTATION_STYLE_ASSIGNMENT((#545));
#544=PRESENTATION_STYLE_ASSIGNMENT((#546));
#545=SURFACE_STYLE_USAGE(.BOTH.,#547);
#546=SURFACE_STYLE_USAGE(.BOTH.,#548);
#547=SURFACE_SIDE_STYLE('',(#549));
#548=SURFACE_SIDE_STYLE('',(#550));
#549=SURFACE_STYLE_FILL_AREA(#551);
#550=SURFACE_STYLE_FILL_AREA(#552);
#551=FILL_AREA_STYLE('Steel - Satin',(#553));
#552=FILL_AREA_STYLE('Aluminum - Anodized Glossy (Red)',(#554));
#553=FILL_AREA_STYLE_COLOUR('Steel - Satin',#555);
#554=FILL_AREA_STYLE_COLOUR('Aluminum - Anodized Glossy (Red)',#556);
#555=COLOUR_RGB('Steel - Satin',0.627450980392157,0.627450980392157,0.627450980392157);
#556=COLOUR_RGB('Aluminum - Anodized Glossy (Red)',0.854901960784314,0.349019607843137,
0.349019607843137);
ENDSEC;
END-ISO-10303-21;
