ISO-10303-21;
HEADER;

/* File generated by Shapr3D Version 5.710.7459.0 */

FILE_DESCRIPTION(('HOOPS Exchange Step'),'2;1');

FILE_NAME('C:\\Users\\Usuario\\AppData\\Local\\Packages\\Shapr3D.Shapr3D_j403pzjkqtqbj\\TempState\\export\\temp_export',
'2024-09-25T22:01:55+21:00',
('Usuario'),
('Shapr3D Limited'),
'HOOPS Exchange 2024.2',
'Shapr3D',
'Authorized');

FILE_SCHEMA( ('AP242_MANAGED_MODEL_BASED_3D_ENGINEERING_MIM_LF {1 0 10303 442 1 1 4 }') );

ENDSEC;

DATA;
#3=(NAMED_UNIT(*)PLANE_ANGLE_UNIT()SI_UNIT($,.RADIAN.));
#4=PLANE_ANGLE_MEASURE_WITH_UNIT(PLANE_ANGLE_MEASURE(0.0174532925),#3);
#5=(CONVERSION_BASED_UNIT('DEGREE',#4)NAMED_UNIT(#6)PLANE_ANGLE_UNIT());
#6=DIMENSIONAL_EXPONENTS(0.,0.,0.,0.,0.,0.,0.);
#7=(NAMED_UNIT(*)SI_UNIT($,.STERADIAN.)SOLID_ANGLE_UNIT());
#8=(LENGTH_UNIT()NAMED_UNIT(*)SI_UNIT(.MILLI.,.METRE.));
#9=UNCERTAINTY_MEASURE_WITH_UNIT(LENGTH_MEASURE(1.000000E-05),#8,'DISTANCE_ACCURACY_VALUE','Maximum Tolerance applied to model');
#10=(GEOMETRIC_REPRESENTATION_CONTEXT(3)GLOBAL_UNCERTAINTY_ASSIGNED_CONTEXT((#9))GLOBAL_UNIT_ASSIGNED_CONTEXT((#8,#5,#7))REPRESENTATION_CONTEXT('','root'));
#12=CARTESIAN_POINT('',(0.,0.,0.));
#13=DIRECTION('',(0.,0.,1.));
#14=DIRECTION('',(1.,0.,0.));
#15=AXIS2_PLACEMENT_3D('',#12,#13,#14);
#27=CARTESIAN_POINT('',(-7.,-742.842699715,466.754449412));
#28=DIRECTION('',(-1.,-0.,0.));
#29=DIRECTION('',(-0.,-0.999048222,-0.043619387));
#30=AXIS2_PLACEMENT_3D('',#27,#28,#29);
#31=PLANE('',#30);
#32=CARTESIAN_POINT('',(-7.,-754.489381436,495.394868496));
#33=VERTEX_POINT('',#32);
#34=CARTESIAN_POINT('',(-7.,-754.096152659,486.388448779));
#35=VERTEX_POINT('',#34);
#36=CARTESIAN_POINT('',(-7.,-754.292767048,490.891658638));
#37=DIRECTION('',(1.,0.,-0.));
#38=DIRECTION('',(0.,-0.043619387,0.999048222));
#39=AXIS2_PLACEMENT_3D('',#36,#37,#38);
#40=CIRCLE('',#39,4.5075);
#41=EDGE_CURVE('',#33,#35,#40,.T.);
#42=ORIENTED_EDGE('',*,*,#41,.T.);
#43=CARTESIAN_POINT('',(-7.,-754.292767048,490.891658638));
#44=DIRECTION('',(1.,0.,-0.));
#45=DIRECTION('',(0.,-0.043619387,0.999048222));
#46=AXIS2_PLACEMENT_3D('',#43,#44,#45);
#47=CIRCLE('',#46,4.5075);
#48=EDGE_CURVE('',#35,#33,#47,.T.);
#49=ORIENTED_EDGE('',*,*,#48,.T.);
#50=EDGE_LOOP('',(#42,#49));
#51=FACE_BOUND('',#50,.T.);
#52=CARTESIAN_POINT('',(-7.,-741.712466813,489.325231862));
#53=VERTEX_POINT('',#52);
#54=CARTESIAN_POINT('',(-7.,-766.688672353,488.234747178));
#55=VERTEX_POINT('',#54);
#56=CARTESIAN_POINT('',(-7.,-754.200569583,488.77998952));
#57=DIRECTION('',(1.,0.,-0.));
#58=DIRECTION('',(0.,-0.043619387,0.999048222));
#59=AXIS2_PLACEMENT_3D('',#56,#57,#58);
#60=CIRCLE('',#59,12.5);
#61=EDGE_CURVE('',#53,#55,#60,.T.);
#62=ORIENTED_EDGE('',*,*,#61,.F.);
#63=CARTESIAN_POINT('',(-7.,-740.731030598,466.846646876));
#64=VERTEX_POINT('',#63);
#65=CARTESIAN_POINT('',(-7.,-741.712466813,489.325231862));
#66=DIRECTION('',(-0.,0.043619387,-0.999048222));
#67=VECTOR('',#66,22.5);
#68=LINE('',#65,#67);
#69=EDGE_CURVE('',#53,#64,#68,.T.);
#70=ORIENTED_EDGE('',*,*,#69,.T.);
#71=CARTESIAN_POINT('',(-7.,-765.707236137,465.756162192));
#72=VERTEX_POINT('',#71);
#73=CARTESIAN_POINT('',(-7.,-765.707236137,465.756162192));
#74=DIRECTION('',(0.,0.999048222,0.043619387));
#75=VECTOR('',#74,25.);
#76=LINE('',#73,#75);
#77=EDGE_CURVE('',#72,#64,#76,.T.);
#78=ORIENTED_EDGE('',*,*,#77,.F.);
#79=CARTESIAN_POINT('',(-7.,-765.707236137,465.756162192));
#80=DIRECTION('',(0.,-0.043619387,0.999048222));
#81=VECTOR('',#80,22.5);
#82=LINE('',#79,#81);
#83=EDGE_CURVE('',#72,#55,#82,.T.);
#84=ORIENTED_EDGE('',*,*,#83,.T.);
#85=EDGE_LOOP('',(#62,#70,#78,#84));
#86=FACE_BOUND('',#85,.T.);
#87=ADVANCED_FACE('',(#51,#86),#31,.T.);
#88=COLOUR_RGB('',0.627451003,0.627451003,0.627451003);
#89=FILL_AREA_STYLE_COLOUR('',#88);
#90=FILL_AREA_STYLE('',(#89));
#91=SURFACE_STYLE_FILL_AREA(#90);
#92=SURFACE_SIDE_STYLE('',(#91));
#93=SURFACE_STYLE_USAGE(.BOTH.,#92);
#94=PRESENTATION_STYLE_ASSIGNMENT((#93));
#95=OVER_RIDING_STYLED_ITEM('',(#94),#87,#26);
#96=CARTESIAN_POINT('',(7.,-763.59556702,465.848359657));
#97=DIRECTION('',(1.,0.,-0.));
#98=DIRECTION('',(0.,0.999048222,0.043619387));
#99=AXIS2_PLACEMENT_3D('',#96,#97,#98);
#100=PLANE('',#99);
#101=CARTESIAN_POINT('',(7.,-754.096152659,486.388448779));
#102=VERTEX_POINT('',#101);
#103=CARTESIAN_POINT('',(7.,-754.292767048,490.891658638));
#104=DIRECTION('',(-1.,-0.,0.));
#105=DIRECTION('',(-0.,0.043619387,-0.999048222));
#106=AXIS2_PLACEMENT_3D('',#103,#104,#105);
#107=CIRCLE('',#106,4.5075);
#108=EDGE_CURVE('',#102,#102,#107,.T.);
#109=ORIENTED_EDGE('',*,*,#108,.T.);
#110=EDGE_LOOP('',(#109));
#111=FACE_BOUND('',#110,.T.);
#112=CARTESIAN_POINT('',(7.,-740.731030598,466.846646876));
#113=VERTEX_POINT('',#112);
#114=CARTESIAN_POINT('',(7.,-741.712466813,489.325231862));
#115=VERTEX_POINT('',#114);
#116=CARTESIAN_POINT('',(7.,-740.731030598,466.846646876));
#117=DIRECTION('',(0.,-0.043619387,0.999048222));
#118=VECTOR('',#117,22.5);
#119=LINE('',#116,#118);
#120=EDGE_CURVE('',#113,#115,#119,.T.);
#121=ORIENTED_EDGE('',*,*,#120,.T.);
#122=CARTESIAN_POINT('',(7.,-766.688672353,488.234747178));
#123=VERTEX_POINT('',#122);
#124=CARTESIAN_POINT('',(7.,-754.200569583,488.77998952));
#125=DIRECTION('',(-1.,-0.,0.));
#126=DIRECTION('',(-0.,0.043619387,-0.999048222));
#127=AXIS2_PLACEMENT_3D('',#124,#125,#126);
#128=CIRCLE('',#127,12.5);
#129=EDGE_CURVE('',#123,#115,#128,.T.);
#130=ORIENTED_EDGE('',*,*,#129,.F.);
#131=CARTESIAN_POINT('',(7.,-765.707236137,465.756162192));
#132=VERTEX_POINT('',#131);
#133=CARTESIAN_POINT('',(7.,-765.707236137,465.756162192));
#134=DIRECTION('',(0.,-0.043619387,0.999048222));
#135=VECTOR('',#134,22.5);
#136=LINE('',#133,#135);
#137=EDGE_CURVE('',#132,#123,#136,.T.);
#138=ORIENTED_EDGE('',*,*,#137,.F.);
#139=CARTESIAN_POINT('',(7.,-740.731030598,466.846646876));
#140=DIRECTION('',(-0.,-0.999048222,-0.043619387));
#141=VECTOR('',#140,25.);
#142=LINE('',#139,#141);
#143=EDGE_CURVE('',#113,#132,#142,.T.);
#144=ORIENTED_EDGE('',*,*,#143,.F.);
#145=EDGE_LOOP('',(#121,#130,#138,#144));
#146=FACE_BOUND('',#145,.T.);
#147=ADVANCED_FACE('',(#111,#146),#100,.T.);
#148=OVER_RIDING_STYLED_ITEM('',(#94),#147,#26);
#149=CARTESIAN_POINT('',(15.,-753.219133367,466.301404534));
#150=DIRECTION('',(1.,0.,-0.));
#151=DIRECTION('',(-0.,0.043619387,-0.999048222));
#152=AXIS2_PLACEMENT_3D('',#149,#150,#151);
#153=PLANE('',#152);
#154=CARTESIAN_POINT('',(15.,-737.448261071,448.972827356));
#155=VERTEX_POINT('',#154);
#156=CARTESIAN_POINT('',(15.,-767.419707719,447.664245735));
#157=VERTEX_POINT('',#156);
#158=CARTESIAN_POINT('',(15.,-737.448261071,448.972827356));
#159=DIRECTION('',(-0.,-0.999048222,-0.043619387));
#160=VECTOR('',#159,30.);
#161=LINE('',#158,#160);
#162=EDGE_CURVE('',#155,#157,#161,.T.);
#163=ORIENTED_EDGE('',*,*,#162,.F.);
#164=CARTESIAN_POINT('',(15.,-738.233410044,466.955695345));
#165=VERTEX_POINT('',#164);
#166=CARTESIAN_POINT('',(15.,-738.233410044,466.955695345));
#167=DIRECTION('',(-0.,0.043619387,-0.999048222));
#168=VECTOR('',#167,18.);
#169=LINE('',#166,#168);
#170=EDGE_CURVE('',#165,#155,#169,.T.);
#171=ORIENTED_EDGE('',*,*,#170,.F.);
#172=CARTESIAN_POINT('',(15.,-768.204856691,465.647113724));
#173=VERTEX_POINT('',#172);
#174=CARTESIAN_POINT('',(15.,-738.233410044,466.955695345));
#175=DIRECTION('',(-0.,-0.999048222,-0.043619387));
#176=VECTOR('',#175,30.);
#177=LINE('',#174,#176);
#178=EDGE_CURVE('',#165,#173,#177,.T.);
#179=ORIENTED_EDGE('',*,*,#178,.T.);
#180=CARTESIAN_POINT('',(15.,-768.204856691,465.647113724));
#181=DIRECTION('',(-0.,0.043619387,-0.999048222));
#182=VECTOR('',#181,18.);
#183=LINE('',#180,#182);
#184=EDGE_CURVE('',#173,#157,#183,.T.);
#185=ORIENTED_EDGE('',*,*,#184,.T.);
#186=EDGE_LOOP('',(#163,#171,#179,#185));
#187=FACE_BOUND('',#186,.T.);
#188=ADVANCED_FACE('',(#187),#153,.T.);
#189=CARTESIAN_POINT('',(-0.,-768.204856691,465.647113724));
#190=DIRECTION('',(0.,-0.999048222,-0.043619387));
#191=DIRECTION('',(0.,0.043619387,-0.999048222));
#192=AXIS2_PLACEMENT_3D('',#189,#190,#191);
#193=PLANE('',#192);
#194=ORIENTED_EDGE('',*,*,#184,.F.);
#195=CARTESIAN_POINT('',(-15.,-768.204856691,465.647113724));
#196=VERTEX_POINT('',#195);
#197=CARTESIAN_POINT('',(15.,-768.204856691,465.647113724));
#198=DIRECTION('',(-1.,-0.,0.));
#199=VECTOR('',#198,30.);
#200=LINE('',#197,#199);
#201=EDGE_CURVE('',#173,#196,#200,.T.);
#202=ORIENTED_EDGE('',*,*,#201,.T.);
#203=CARTESIAN_POINT('',(-15.,-767.419707719,447.664245735));
#204=VERTEX_POINT('',#203);
#205=CARTESIAN_POINT('',(-15.,-768.204856691,465.647113724));
#206=DIRECTION('',(-0.,0.043619387,-0.999048222));
#207=VECTOR('',#206,18.);
#208=LINE('',#205,#207);
#209=EDGE_CURVE('',#196,#204,#208,.T.);
#210=ORIENTED_EDGE('',*,*,#209,.T.);
#211=CARTESIAN_POINT('',(15.,-767.419707719,447.664245735));
#212=DIRECTION('',(-1.,-0.,0.));
#213=VECTOR('',#212,30.);
#214=LINE('',#211,#213);
#215=EDGE_CURVE('',#157,#204,#214,.T.);
#216=ORIENTED_EDGE('',*,*,#215,.F.);
#217=EDGE_LOOP('',(#194,#202,#210,#216));
#218=FACE_BOUND('',#217,.T.);
#219=ADVANCED_FACE('',(#218),#193,.T.);
#220=CARTESIAN_POINT('',(60.,0.355714104,499.203192927));
#221=DIRECTION('',(-0.,0.043619387,-0.999048222));
#222=DIRECTION('',(-1.,-0.,0.));
#223=AXIS2_PLACEMENT_3D('',#220,#221,#222);
#224=PLANE('',#223);
#225=CARTESIAN_POINT('',(-15.,-738.233410044,466.955695345));
#226=VERTEX_POINT('',#225);
#227=CARTESIAN_POINT('',(-15.,-738.233410044,466.955695345));
#228=DIRECTION('',(1.,0.,-0.));
#229=VECTOR('',#228,30.);
#230=LINE('',#227,#229);
#231=EDGE_CURVE('',#226,#165,#230,.T.);
#232=ORIENTED_EDGE('',*,*,#231,.F.);
#233=CARTESIAN_POINT('',(-15.,-768.204856691,465.647113724));
#234=DIRECTION('',(0.,0.999048222,0.043619387));
#235=VECTOR('',#234,30.);
#236=LINE('',#233,#235);
#237=EDGE_CURVE('',#196,#226,#236,.T.);
#238=ORIENTED_EDGE('',*,*,#237,.F.);
#239=ORIENTED_EDGE('',*,*,#201,.F.);
#240=ORIENTED_EDGE('',*,*,#178,.F.);
#241=EDGE_LOOP('',(#232,#238,#239,#240));
#242=FACE_BOUND('',#241,.T.);
#243=ORIENTED_EDGE('',*,*,#77,.T.);
#244=CARTESIAN_POINT('',(7.,-740.731030598,466.846646876));
#245=DIRECTION('',(-1.,0.,0.));
#246=VECTOR('',#245,14.);
#247=LINE('',#244,#246);
#248=EDGE_CURVE('',#113,#64,#247,.T.);
#249=ORIENTED_EDGE('',*,*,#248,.F.);
#250=ORIENTED_EDGE('',*,*,#143,.T.);
#251=CARTESIAN_POINT('',(-7.,-765.707236137,465.756162192));
#252=DIRECTION('',(1.,0.,-0.));
#253=VECTOR('',#252,14.);
#254=LINE('',#251,#253);
#255=EDGE_CURVE('',#72,#132,#254,.T.);
#256=ORIENTED_EDGE('',*,*,#255,.F.);
#257=EDGE_LOOP('',(#243,#249,#250,#256));
#258=FACE_BOUND('',#257,.T.);
#259=ADVANCED_FACE('',(#242,#258),#224,.F.);
#260=CARTESIAN_POINT('',(60.,1.140863076,481.220324939));
#261=DIRECTION('',(-0.,0.043619387,-0.999048222));
#262=DIRECTION('',(-1.,-0.,0.));
#263=AXIS2_PLACEMENT_3D('',#260,#261,#262);
#264=PLANE('',#263);
#265=CARTESIAN_POINT('',(-15.,-737.448261071,448.972827356));
#266=VERTEX_POINT('',#265);
#267=CARTESIAN_POINT('',(-15.,-737.448261071,448.972827356));
#268=DIRECTION('',(1.,0.,-0.));
#269=VECTOR('',#268,30.);
#270=LINE('',#267,#269);
#271=EDGE_CURVE('',#266,#155,#270,.T.);
#272=ORIENTED_EDGE('',*,*,#271,.T.);
#273=ORIENTED_EDGE('',*,*,#162,.T.);
#274=ORIENTED_EDGE('',*,*,#215,.T.);
#275=CARTESIAN_POINT('',(-15.,-767.419707719,447.664245735));
#276=DIRECTION('',(0.,0.999048222,0.043619387));
#277=VECTOR('',#276,30.);
#278=LINE('',#275,#277);
#279=EDGE_CURVE('',#204,#266,#278,.T.);
#280=ORIENTED_EDGE('',*,*,#279,.T.);
#281=EDGE_LOOP('',(#272,#273,#274,#280));
#282=FACE_BOUND('',#281,.T.);
#283=CARTESIAN_POINT('',(-12.7,-752.433984395,448.318536546));
#284=VERTEX_POINT('',#283);
#285=CARTESIAN_POINT('',(12.7,-752.433984395,448.318536546));
#286=VERTEX_POINT('',#285);
#287=CARTESIAN_POINT('',(-0.,-752.433984395,448.318536546));
#288=DIRECTION('',(0.,-0.043619387,0.999048222));
#289=DIRECTION('',(-1.,-0.,0.));
#290=AXIS2_PLACEMENT_3D('',#287,#288,#289);
#291=CIRCLE('',#290,12.7);
#292=EDGE_CURVE('',#284,#286,#291,.T.);
#293=ORIENTED_EDGE('',*,*,#292,.T.);
#294=CARTESIAN_POINT('',(-0.,-752.433984395,448.318536546));
#295=DIRECTION('',(0.,-0.043619387,0.999048222));
#296=DIRECTION('',(-1.,-0.,0.));
#297=AXIS2_PLACEMENT_3D('',#294,#295,#296);
#298=CIRCLE('',#297,12.7);
#299=EDGE_CURVE('',#286,#284,#298,.T.);
#300=ORIENTED_EDGE('',*,*,#299,.T.);
#301=EDGE_LOOP('',(#293,#300));
#302=FACE_BOUND('',#301,.T.);
#303=ADVANCED_FACE('',(#282,#302),#264,.T.);
#304=CARTESIAN_POINT('',(-0.,-754.200569583,488.77998952));
#305=DIRECTION('',(1.,0.,-0.));
#306=DIRECTION('',(-0.,0.043619387,-0.999048222));
#307=AXIS2_PLACEMENT_3D('',#304,#305,#306);
#308=CYLINDRICAL_SURFACE('',#307,12.5);
#309=CARTESIAN_POINT('',(-7.,-766.688672353,488.234747178));
#310=DIRECTION('',(1.,0.,-0.));
#311=VECTOR('',#310,14.);
#312=LINE('',#309,#311);
#313=EDGE_CURVE('',#55,#123,#312,.T.);
#314=ORIENTED_EDGE('',*,*,#313,.T.);
#315=ORIENTED_EDGE('',*,*,#129,.T.);
#316=CARTESIAN_POINT('',(7.,-741.712466813,489.325231862));
#317=DIRECTION('',(-1.,0.,0.));
#318=VECTOR('',#317,14.);
#319=LINE('',#316,#318);
#320=EDGE_CURVE('',#115,#53,#319,.T.);
#321=ORIENTED_EDGE('',*,*,#320,.T.);
#322=ORIENTED_EDGE('',*,*,#61,.T.);
#323=EDGE_LOOP('',(#314,#315,#321,#322));
#324=FACE_BOUND('',#323,.T.);
#325=ADVANCED_FACE('',(#324),#308,.T.);
#326=OVER_RIDING_STYLED_ITEM('',(#94),#325,#26);
#327=CARTESIAN_POINT('',(7.,-754.292767048,490.891658638));
#328=DIRECTION('',(-1.,-0.,0.));
#329=DIRECTION('',(-0.,0.043619387,-0.999048222));
#330=AXIS2_PLACEMENT_3D('',#327,#328,#329);
#331=CYLINDRICAL_SURFACE('',#330,4.5075);
#332=CARTESIAN_POINT('',(-7.,-754.096152659,486.388448779));
#333=DIRECTION('',(1.,0.,-0.));
#334=VECTOR('',#333,14.);
#335=LINE('',#332,#334);
#336=EDGE_CURVE('',#35,#102,#335,.T.);
#337=ORIENTED_EDGE('',*,*,#336,.F.);
#338=ORIENTED_EDGE('',*,*,#41,.F.);
#339=ORIENTED_EDGE('',*,*,#48,.F.);
#340=ORIENTED_EDGE('',*,*,#336,.T.);
#341=ORIENTED_EDGE('',*,*,#108,.F.);
#342=EDGE_LOOP('',(#337,#338,#339,#340,#341));
#343=FACE_BOUND('',#342,.T.);
#344=ADVANCED_FACE('',(#343),#331,.F.);
#345=OVER_RIDING_STYLED_ITEM('',(#94),#344,#26);
#346=CARTESIAN_POINT('',(-0.,-752.870178268,458.309018762));
#347=DIRECTION('',(-0.,0.043619387,-0.999048222));
#348=DIRECTION('',(1.,0.,-0.));
#349=AXIS2_PLACEMENT_3D('',#346,#347,#348);
#350=CYLINDRICAL_SURFACE('',#349,12.7);
#351=CARTESIAN_POINT('',(12.7,-752.870178268,458.309018762));
#352=VERTEX_POINT('',#351);
#353=CARTESIAN_POINT('',(12.7,-752.433984395,448.318536546));
#354=DIRECTION('',(0.,-0.043619387,0.999048222));
#355=VECTOR('',#354,10.);
#356=LINE('',#353,#355);
#357=EDGE_CURVE('',#286,#352,#356,.T.);
#358=ORIENTED_EDGE('',*,*,#357,.F.);
#359=ORIENTED_EDGE('',*,*,#292,.F.);
#360=ORIENTED_EDGE('',*,*,#299,.F.);
#361=ORIENTED_EDGE('',*,*,#357,.T.);
#362=CARTESIAN_POINT('',(-0.,-752.870178268,458.309018762));
#363=DIRECTION('',(-0.,0.043619387,-0.999048222));
#364=DIRECTION('',(1.,0.,-0.));
#365=AXIS2_PLACEMENT_3D('',#362,#363,#364);
#366=CIRCLE('',#365,12.7);
#367=EDGE_CURVE('',#352,#352,#366,.T.);
#368=ORIENTED_EDGE('',*,*,#367,.F.);
#369=EDGE_LOOP('',(#358,#359,#360,#361,#368));
#370=FACE_BOUND('',#369,.T.);
#371=ADVANCED_FACE('',(#370),#350,.F.);
#372=OVER_RIDING_STYLED_ITEM('',(#94),#371,#26);
#373=CARTESIAN_POINT('',(-0.,-752.870178268,458.309018762));
#374=DIRECTION('',(0.,-0.043619387,0.999048222));
#375=DIRECTION('',(1.,0.,-0.));
#376=AXIS2_PLACEMENT_3D('',#373,#374,#375);
#377=PLANE('',#376);
#378=ORIENTED_EDGE('',*,*,#367,.T.);
#379=EDGE_LOOP('',(#378));
#380=FACE_BOUND('',#379,.T.);
#381=ADVANCED_FACE('',(#380),#377,.F.);
#382=OVER_RIDING_STYLED_ITEM('',(#94),#381,#26);
#383=CARTESIAN_POINT('',(-0.,-738.233410044,466.955695345));
#384=DIRECTION('',(0.,0.999048222,0.043619387));
#385=DIRECTION('',(0.,-0.043619387,0.999048222));
#386=AXIS2_PLACEMENT_3D('',#383,#384,#385);
#387=PLANE('',#386);
#388=CARTESIAN_POINT('',(-15.,-738.233410044,466.955695345));
#389=DIRECTION('',(-0.,0.043619387,-0.999048222));
#390=VECTOR('',#389,18.);
#391=LINE('',#388,#390);
#392=EDGE_CURVE('',#226,#266,#391,.T.);
#393=ORIENTED_EDGE('',*,*,#392,.F.);
#394=ORIENTED_EDGE('',*,*,#231,.T.);
#395=ORIENTED_EDGE('',*,*,#170,.T.);
#396=ORIENTED_EDGE('',*,*,#271,.F.);
#397=EDGE_LOOP('',(#393,#394,#395,#396));
#398=FACE_BOUND('',#397,.T.);
#399=ADVANCED_FACE('',(#398),#387,.T.);
#400=CARTESIAN_POINT('',(-15.,-753.219133367,466.301404534));
#401=DIRECTION('',(-1.,-0.,0.));
#402=DIRECTION('',(0.,-0.043619387,0.999048222));
#403=AXIS2_PLACEMENT_3D('',#400,#401,#402);
#404=PLANE('',#403);
#405=ORIENTED_EDGE('',*,*,#279,.F.);
#406=ORIENTED_EDGE('',*,*,#209,.F.);
#407=ORIENTED_EDGE('',*,*,#237,.T.);
#408=ORIENTED_EDGE('',*,*,#392,.T.);
#409=EDGE_LOOP('',(#405,#406,#407,#408));
#410=FACE_BOUND('',#409,.T.);
#411=ADVANCED_FACE('',(#410),#404,.T.);
#412=CARTESIAN_POINT('',(-1.,-745.368476405,-0.078022256));
#413=DIRECTION('',(0.,-0.999048222,-0.043619387));
#414=DIRECTION('',(0.,0.043619387,-0.999048222));
#415=AXIS2_PLACEMENT_3D('',#412,#413,#414);
#416=PLANE('',#415);
#417=ORIENTED_EDGE('',*,*,#83,.F.);
#418=ORIENTED_EDGE('',*,*,#255,.T.);
#419=ORIENTED_EDGE('',*,*,#137,.T.);
#420=ORIENTED_EDGE('',*,*,#313,.F.);
#421=EDGE_LOOP('',(#417,#418,#419,#420));
#422=FACE_BOUND('',#421,.T.);
#423=ADVANCED_FACE('',(#422),#416,.T.);
#424=CARTESIAN_POINT('',(-1.,-720.392270866,1.012462428));
#425=DIRECTION('',(0.,0.999048222,0.043619387));
#426=DIRECTION('',(0.,-0.043619387,0.999048222));
#427=AXIS2_PLACEMENT_3D('',#424,#425,#426);
#428=PLANE('',#427);
#429=ORIENTED_EDGE('',*,*,#120,.F.);
#430=ORIENTED_EDGE('',*,*,#248,.T.);
#431=ORIENTED_EDGE('',*,*,#69,.F.);
#432=ORIENTED_EDGE('',*,*,#320,.F.);
#433=EDGE_LOOP('',(#429,#430,#431,#432));
#434=FACE_BOUND('',#433,.T.);
#435=ADVANCED_FACE('',(#434),#428,.T.);
#436=CLOSED_SHELL('',(#87,#147,#188,#219,#259,#303,#325,#344,#371,#381,#399,#411,#423,#435));
#437=MANIFOLD_SOLID_BREP('Cuerpo 93',#436);
#438=COLOUR_RGB('',0.494117647,0.494117647,0.525490224);
#439=FILL_AREA_STYLE_COLOUR('',#438);
#440=FILL_AREA_STYLE('',(#439));
#441=SURFACE_STYLE_FILL_AREA(#440);
#442=SURFACE_SIDE_STYLE('',(#441));
#443=SURFACE_STYLE_USAGE(.BOTH.,#442);
#444=PRESENTATION_STYLE_ASSIGNMENT((#443));
#26=STYLED_ITEM('',(#444),#437);
#16=SHAPE_REPRESENTATION('root',(#15),#10);
#17=ADVANCED_BREP_SHAPE_REPRESENTATION('root',(#437),#10);
#452=SHAPE_REPRESENTATION_RELATIONSHIP('','',#16,#17);
#453=CARTESIAN_POINT('',(0.,0.,0.));
#454=DIRECTION('',(0.,0.,1.));
#455=DIRECTION('',(1.,0.,0.));
#456=AXIS2_PLACEMENT_3D('',#453,#454,#455);
#458=MAPPED_ITEM('',#457,#456);
#457=REPRESENTATION_MAP(#456,#16);
#459=APPLICATION_CONTEXT('Managed model based 3d engineering');
#460=APPLICATION_PROTOCOL_DEFINITION('international standard','ap242_managed_model_based_3d_engineering',2013,#459);
#461=PRODUCT_CONTEXT('',#459,'mechanical');
#462=PRODUCT_DEFINITION_CONTEXT('part definition',#459,'design');
#24=PRODUCT('root','root','',(#461));
#463=PRODUCT_RELATED_PRODUCT_CATEGORY('part','',(#24));
#464=PRODUCT_DEFINITION_FORMATION_WITH_SPECIFIED_SOURCE('','',#24,.NOT_KNOWN.);
#25=PRODUCT_DEFINITION('design','',#464,#462);
#23=PRODUCT_DEFINITION_SHAPE('','',#25);
#465=SHAPE_DEFINITION_REPRESENTATION(#23,#16);
#11=DRAUGHTING_MODEL('',(#458),#10);
#466=DESCRIPTIVE_REPRESENTATION_ITEM('KEY','C:\\Users\\Usuario\\AppData\\Local\\Packages\\Shapr3D.Shapr3D_j403pzjkqtqbj\\TempState\\3349d6c2-30b0-4b26-b069-68801ba49013.tmp');
#467=PROPERTY_DEFINITION('KEY','',#25);
#468=REPRESENTATION('',(#466),#10);
#469=PROPERTY_DEFINITION_REPRESENTATION(#467,#468);
#470=GENERAL_PROPERTY('','KEY','');
#471=GENERAL_PROPERTY_ASSOCIATION('','',#470,#467);
#1=MECHANICAL_DESIGN_GEOMETRIC_PRESENTATION_REPRESENTATION('',(#95,#148,#326,#345,#372,#382,#26),#10);
ENDSEC;
END-ISO-10303-21;
