ISO-10303-21;
HEADER;
/* Generated by software containing ST-Developer
 * from STEP Tools, Inc. (www.steptools.com) 
 */

FILE_DESCRIPTION(
/* description */ (''),
/* implementation_level */ '2;1');

FILE_NAME(
/* name */ 'D3.step',
/* time_stamp */ '2024-09-28T16:13:48-03:00',
/* author */ (''),
/* organization */ (''),
/* preprocessor_version */ 'ST-DEVELOPER v20',
/* originating_system */ 'Autodesk Translation Framework v13.20.0.188',

/* authorisation */ '');

FILE_SCHEMA (('AUTOMOTIVE_DESIGN { 1 0 10303 214 3 1 1 }'));
ENDSEC;

DATA;
#10=MECHANICAL_DESIGN_GEOMETRIC_PRESENTATION_REPRESENTATION('',(#13),#360);
#11=SHAPE_REPRESENTATION_RELATIONSHIP('SRR','None',#367,#12);
#12=ADVANCED_BREP_SHAPE_REPRESENTATION('',(#14),#359);
#13=STYLED_ITEM('',(#376),#14);
#14=MANIFOLD_SOLID_BREP('Body1',#208);
#15=FACE_BOUND('',#45,.T.);
#16=FACE_BOUND('',#47,.T.);
#17=PLANE('',#228);
#18=PLANE('',#229);
#19=PLANE('',#230);
#20=PLANE('',#237);
#21=PLANE('',#238);
#22=PLANE('',#239);
#23=PLANE('',#240);
#24=FACE_OUTER_BOUND('',#35,.T.);
#25=FACE_OUTER_BOUND('',#36,.T.);
#26=FACE_OUTER_BOUND('',#37,.T.);
#27=FACE_OUTER_BOUND('',#38,.T.);
#28=FACE_OUTER_BOUND('',#39,.T.);
#29=FACE_OUTER_BOUND('',#40,.T.);
#30=FACE_OUTER_BOUND('',#41,.T.);
#31=FACE_OUTER_BOUND('',#42,.T.);
#32=FACE_OUTER_BOUND('',#43,.T.);
#33=FACE_OUTER_BOUND('',#44,.T.);
#34=FACE_OUTER_BOUND('',#46,.T.);
#35=EDGE_LOOP('',(#139,#140,#141,#142));
#36=EDGE_LOOP('',(#143,#144,#145,#146));
#37=EDGE_LOOP('',(#147,#148,#149,#150));
#38=EDGE_LOOP('',(#151,#152,#153,#154));
#39=EDGE_LOOP('',(#155,#156,#157,#158));
#40=EDGE_LOOP('',(#159,#160,#161,#162));
#41=EDGE_LOOP('',(#163,#164,#165,#166));
#42=EDGE_LOOP('',(#167,#168,#169,#170));
#43=EDGE_LOOP('',(#171,#172,#173,#174));
#44=EDGE_LOOP('',(#175,#176,#177,#178,#179,#180,#181,#182));
#45=EDGE_LOOP('',(#183));
#46=EDGE_LOOP('',(#184,#185,#186,#187,#188,#189,#190,#191));
#47=EDGE_LOOP('',(#192));
#48=LINE('',#306,#67);
#49=LINE('',#309,#68);
#50=LINE('',#315,#69);
#51=LINE('',#318,#70);
#52=LINE('',#320,#71);
#53=LINE('',#321,#72);
#54=LINE('',#324,#73);
#55=LINE('',#326,#74);
#56=LINE('',#327,#75);
#57=LINE('',#330,#76);
#58=LINE('',#332,#77);
#59=LINE('',#333,#78);
#60=LINE('',#338,#79);
#61=LINE('',#345,#80);
#62=LINE('',#348,#81);
#63=LINE('',#350,#82);
#64=LINE('',#351,#83);
#65=LINE('',#353,#84);
#66=LINE('',#354,#85);
#67=VECTOR('',#247,10.);
#68=VECTOR('',#250,10.);
#69=VECTOR('',#255,10.);
#70=VECTOR('',#258,10.);
#71=VECTOR('',#261,10.);
#72=VECTOR('',#262,10.);
#73=VECTOR('',#265,10.);
#74=VECTOR('',#266,10.);
#75=VECTOR('',#267,10.);
#76=VECTOR('',#270,10.);
#77=VECTOR('',#271,10.);
#78=VECTOR('',#272,10.);
#79=VECTOR('',#277,4.5075);
#80=VECTOR('',#284,10.);
#81=VECTOR('',#287,10.);
#82=VECTOR('',#290,10.);
#83=VECTOR('',#291,10.);
#84=VECTOR('',#294,10.);
#85=VECTOR('',#295,10.);
#86=CIRCLE('',#223,10.7);
#87=CIRCLE('',#224,10.7);
#88=CIRCLE('',#226,10.7);
#89=CIRCLE('',#227,10.7);
#90=CIRCLE('',#232,4.5075);
#91=CIRCLE('',#233,4.5075);
#92=CIRCLE('',#235,12.5);
#93=CIRCLE('',#236,12.5);
#94=VERTEX_POINT('',#302);
#95=VERTEX_POINT('',#303);
#96=VERTEX_POINT('',#305);
#97=VERTEX_POINT('',#307);
#98=VERTEX_POINT('',#311);
#99=VERTEX_POINT('',#312);
#100=VERTEX_POINT('',#314);
#101=VERTEX_POINT('',#316);
#102=VERTEX_POINT('',#323);
#103=VERTEX_POINT('',#325);
#104=VERTEX_POINT('',#329);
#105=VERTEX_POINT('',#331);
#106=VERTEX_POINT('',#335);
#107=VERTEX_POINT('',#337);
#108=VERTEX_POINT('',#341);
#109=VERTEX_POINT('',#342);
#110=VERTEX_POINT('',#344);
#111=VERTEX_POINT('',#346);
#112=EDGE_CURVE('',#94,#95,#86,.T.);
#113=EDGE_CURVE('',#94,#96,#48,.T.);
#114=EDGE_CURVE('',#97,#96,#87,.T.);
#115=EDGE_CURVE('',#95,#97,#49,.T.);
#116=EDGE_CURVE('',#98,#99,#88,.T.);
#117=EDGE_CURVE('',#98,#100,#50,.T.);
#118=EDGE_CURVE('',#101,#100,#89,.T.);
#119=EDGE_CURVE('',#99,#101,#51,.T.);
#120=EDGE_CURVE('',#100,#97,#52,.T.);
#121=EDGE_CURVE('',#96,#101,#53,.T.);
#122=EDGE_CURVE('',#102,#95,#54,.T.);
#123=EDGE_CURVE('',#103,#102,#55,.T.);
#124=EDGE_CURVE('',#103,#94,#56,.T.);
#125=EDGE_CURVE('',#99,#104,#57,.T.);
#126=EDGE_CURVE('',#104,#105,#58,.T.);
#127=EDGE_CURVE('',#98,#105,#59,.T.);
#128=EDGE_CURVE('',#106,#106,#90,.T.);
#129=EDGE_CURVE('',#106,#107,#60,.T.);
#130=EDGE_CURVE('',#107,#107,#91,.T.);
#131=EDGE_CURVE('',#108,#109,#92,.T.);
#132=EDGE_CURVE('',#109,#110,#61,.T.);
#133=EDGE_CURVE('',#111,#110,#93,.T.);
#134=EDGE_CURVE('',#108,#111,#62,.T.);
#135=EDGE_CURVE('',#104,#108,#63,.T.);
#136=EDGE_CURVE('',#105,#111,#64,.T.);
#137=EDGE_CURVE('',#109,#103,#65,.T.);
#138=EDGE_CURVE('',#110,#102,#66,.T.);
#139=ORIENTED_EDGE('',*,*,#112,.F.);
#140=ORIENTED_EDGE('',*,*,#113,.T.);
#141=ORIENTED_EDGE('',*,*,#114,.F.);
#142=ORIENTED_EDGE('',*,*,#115,.F.);
#143=ORIENTED_EDGE('',*,*,#116,.F.);
#144=ORIENTED_EDGE('',*,*,#117,.T.);
#145=ORIENTED_EDGE('',*,*,#118,.F.);
#146=ORIENTED_EDGE('',*,*,#119,.F.);
#147=ORIENTED_EDGE('',*,*,#118,.T.);
#148=ORIENTED_EDGE('',*,*,#120,.T.);
#149=ORIENTED_EDGE('',*,*,#114,.T.);
#150=ORIENTED_EDGE('',*,*,#121,.T.);
#151=ORIENTED_EDGE('',*,*,#112,.T.);
#152=ORIENTED_EDGE('',*,*,#122,.F.);
#153=ORIENTED_EDGE('',*,*,#123,.F.);
#154=ORIENTED_EDGE('',*,*,#124,.T.);
#155=ORIENTED_EDGE('',*,*,#116,.T.);
#156=ORIENTED_EDGE('',*,*,#125,.T.);
#157=ORIENTED_EDGE('',*,*,#126,.T.);
#158=ORIENTED_EDGE('',*,*,#127,.F.);
#159=ORIENTED_EDGE('',*,*,#128,.F.);
#160=ORIENTED_EDGE('',*,*,#129,.T.);
#161=ORIENTED_EDGE('',*,*,#130,.T.);
#162=ORIENTED_EDGE('',*,*,#129,.F.);
#163=ORIENTED_EDGE('',*,*,#131,.T.);
#164=ORIENTED_EDGE('',*,*,#132,.T.);
#165=ORIENTED_EDGE('',*,*,#133,.F.);
#166=ORIENTED_EDGE('',*,*,#134,.F.);
#167=ORIENTED_EDGE('',*,*,#135,.T.);
#168=ORIENTED_EDGE('',*,*,#134,.T.);
#169=ORIENTED_EDGE('',*,*,#136,.F.);
#170=ORIENTED_EDGE('',*,*,#126,.F.);
#171=ORIENTED_EDGE('',*,*,#137,.T.);
#172=ORIENTED_EDGE('',*,*,#123,.T.);
#173=ORIENTED_EDGE('',*,*,#138,.F.);
#174=ORIENTED_EDGE('',*,*,#132,.F.);
#175=ORIENTED_EDGE('',*,*,#138,.T.);
#176=ORIENTED_EDGE('',*,*,#122,.T.);
#177=ORIENTED_EDGE('',*,*,#115,.T.);
#178=ORIENTED_EDGE('',*,*,#120,.F.);
#179=ORIENTED_EDGE('',*,*,#117,.F.);
#180=ORIENTED_EDGE('',*,*,#127,.T.);
#181=ORIENTED_EDGE('',*,*,#136,.T.);
#182=ORIENTED_EDGE('',*,*,#133,.T.);
#183=ORIENTED_EDGE('',*,*,#128,.T.);
#184=ORIENTED_EDGE('',*,*,#137,.F.);
#185=ORIENTED_EDGE('',*,*,#131,.F.);
#186=ORIENTED_EDGE('',*,*,#135,.F.);
#187=ORIENTED_EDGE('',*,*,#125,.F.);
#188=ORIENTED_EDGE('',*,*,#119,.T.);
#189=ORIENTED_EDGE('',*,*,#121,.F.);
#190=ORIENTED_EDGE('',*,*,#113,.F.);
#191=ORIENTED_EDGE('',*,*,#124,.F.);
#192=ORIENTED_EDGE('',*,*,#130,.F.);
#193=CYLINDRICAL_SURFACE('',#222,10.7);
#194=CYLINDRICAL_SURFACE('',#225,10.7);
#195=CYLINDRICAL_SURFACE('',#231,4.5075);
#196=CYLINDRICAL_SURFACE('',#234,12.5);
#197=ADVANCED_FACE('',(#24),#193,.T.);
#198=ADVANCED_FACE('',(#25),#194,.T.);
#199=ADVANCED_FACE('',(#26),#17,.T.);
#200=ADVANCED_FACE('',(#27),#18,.T.);
#201=ADVANCED_FACE('',(#28),#19,.T.);
#202=ADVANCED_FACE('',(#29),#195,.F.);
#203=ADVANCED_FACE('',(#30),#196,.T.);
#204=ADVANCED_FACE('',(#31),#20,.T.);
#205=ADVANCED_FACE('',(#32),#21,.T.);
#206=ADVANCED_FACE('',(#33,#15),#22,.T.);
#207=ADVANCED_FACE('',(#34,#16),#23,.F.);
#208=CLOSED_SHELL('',(#197,#198,#199,#200,#201,#202,#203,#204,#205,#206,
#207));
#209=DERIVED_UNIT_ELEMENT(#211,1.);
#210=DERIVED_UNIT_ELEMENT(#362,-3.);
#211=(
MASS_UNIT()
NAMED_UNIT(*)
SI_UNIT(.KILO.,.GRAM.)
);
#212=DERIVED_UNIT((#209,#210));
#213=MEASURE_REPRESENTATION_ITEM('density measure',
POSITIVE_RATIO_MEASURE(7850.),#212);
#214=PROPERTY_DEFINITION_REPRESENTATION(#219,#216);
#215=PROPERTY_DEFINITION_REPRESENTATION(#220,#217);
#216=REPRESENTATION('material name',(#218),#359);
#217=REPRESENTATION('density',(#213),#359);
#218=DESCRIPTIVE_REPRESENTATION_ITEM('Steel','Steel');
#219=PROPERTY_DEFINITION('material property','material name',#369);
#220=PROPERTY_DEFINITION('material property','density of part',#369);
#221=AXIS2_PLACEMENT_3D('',#300,#241,#242);
#222=AXIS2_PLACEMENT_3D('',#301,#243,#244);
#223=AXIS2_PLACEMENT_3D('',#304,#245,#246);
#224=AXIS2_PLACEMENT_3D('',#308,#248,#249);
#225=AXIS2_PLACEMENT_3D('',#310,#251,#252);
#226=AXIS2_PLACEMENT_3D('',#313,#253,#254);
#227=AXIS2_PLACEMENT_3D('',#317,#256,#257);
#228=AXIS2_PLACEMENT_3D('',#319,#259,#260);
#229=AXIS2_PLACEMENT_3D('',#322,#263,#264);
#230=AXIS2_PLACEMENT_3D('',#328,#268,#269);
#231=AXIS2_PLACEMENT_3D('',#334,#273,#274);
#232=AXIS2_PLACEMENT_3D('',#336,#275,#276);
#233=AXIS2_PLACEMENT_3D('',#339,#278,#279);
#234=AXIS2_PLACEMENT_3D('',#340,#280,#281);
#235=AXIS2_PLACEMENT_3D('',#343,#282,#283);
#236=AXIS2_PLACEMENT_3D('',#347,#285,#286);
#237=AXIS2_PLACEMENT_3D('',#349,#288,#289);
#238=AXIS2_PLACEMENT_3D('',#352,#292,#293);
#239=AXIS2_PLACEMENT_3D('',#355,#296,#297);
#240=AXIS2_PLACEMENT_3D('',#356,#298,#299);
#241=DIRECTION('axis',(0.,0.,1.));
#242=DIRECTION('refdir',(1.,0.,0.));
#243=DIRECTION('center_axis',(0.,0.,-1.));
#244=DIRECTION('ref_axis',(1.,0.,0.));
#245=DIRECTION('center_axis',(0.,0.,1.));
#246=DIRECTION('ref_axis',(1.,0.,0.));
#247=DIRECTION('',(0.,0.,-1.));
#248=DIRECTION('center_axis',(0.,0.,-1.));
#249=DIRECTION('ref_axis',(1.,0.,0.));
#250=DIRECTION('',(0.,0.,-1.));
#251=DIRECTION('center_axis',(0.,0.,-1.));
#252=DIRECTION('ref_axis',(-1.,-1.22464679914735E-16,0.));
#253=DIRECTION('center_axis',(0.,0.,1.));
#254=DIRECTION('ref_axis',(1.,0.,0.));
#255=DIRECTION('',(0.,0.,-1.));
#256=DIRECTION('center_axis',(0.,0.,-1.));
#257=DIRECTION('ref_axis',(1.,0.,0.));
#258=DIRECTION('',(0.,0.,-1.));
#259=DIRECTION('center_axis',(0.,0.,-1.));
#260=DIRECTION('ref_axis',(1.,0.,0.));
#261=DIRECTION('',(1.,0.,0.));
#262=DIRECTION('',(-1.,0.,0.));
#263=DIRECTION('center_axis',(0.,0.,-1.));
#264=DIRECTION('ref_axis',(-1.,0.,0.));
#265=DIRECTION('',(-1.,0.,0.));
#266=DIRECTION('',(0.,1.,0.));
#267=DIRECTION('',(-1.,0.,0.));
#268=DIRECTION('center_axis',(0.,0.,-1.));
#269=DIRECTION('ref_axis',(-1.,0.,0.));
#270=DIRECTION('',(-1.,0.,0.));
#271=DIRECTION('',(0.,1.,0.));
#272=DIRECTION('',(-1.,0.,0.));
#273=DIRECTION('center_axis',(0.,1.,0.));
#274=DIRECTION('ref_axis',(1.,0.,0.));
#275=DIRECTION('center_axis',(0.,-1.,0.));
#276=DIRECTION('ref_axis',(1.,0.,0.));
#277=DIRECTION('',(0.,-1.,0.));
#278=DIRECTION('center_axis',(0.,-1.,0.));
#279=DIRECTION('ref_axis',(1.,0.,0.));
#280=DIRECTION('center_axis',(0.,1.,0.));
#281=DIRECTION('ref_axis',(1.,0.,0.));
#282=DIRECTION('center_axis',(0.,1.,0.));
#283=DIRECTION('ref_axis',(1.,0.,0.));
#284=DIRECTION('',(0.,1.,0.));
#285=DIRECTION('center_axis',(0.,1.,0.));
#286=DIRECTION('ref_axis',(1.,0.,0.));
#287=DIRECTION('',(0.,1.,0.));
#288=DIRECTION('center_axis',(-1.,0.,0.));
#289=DIRECTION('ref_axis',(0.,0.,1.));
#290=DIRECTION('',(0.,0.,1.));
#291=DIRECTION('',(0.,0.,1.));
#292=DIRECTION('center_axis',(1.,0.,0.));
#293=DIRECTION('ref_axis',(0.,0.,-1.));
#294=DIRECTION('',(0.,0.,-1.));
#295=DIRECTION('',(0.,0.,-1.));
#296=DIRECTION('center_axis',(0.,1.,0.));
#297=DIRECTION('ref_axis',(1.,0.,0.));
#298=DIRECTION('center_axis',(0.,1.,0.));
#299=DIRECTION('ref_axis',(1.,0.,0.));
#300=CARTESIAN_POINT('',(0.,0.,0.));
#301=CARTESIAN_POINT('Origin',(-2.22044604925031E-15,7.,-30.5));
#302=CARTESIAN_POINT('',(8.09258920247407,0.,-30.5));
#303=CARTESIAN_POINT('',(8.09258920247407,14.,-30.5));
#304=CARTESIAN_POINT('Origin',(-2.22044604925031E-15,7.,-30.5));
#305=CARTESIAN_POINT('',(8.09258920247407,0.,-40.5));
#306=CARTESIAN_POINT('',(8.09258920247407,0.,-30.5));
#307=CARTESIAN_POINT('',(8.09258920247407,14.,-40.5));
#308=CARTESIAN_POINT('Origin',(-2.22044604925031E-15,7.,-40.5));
#309=CARTESIAN_POINT('',(8.09258920247407,14.,-30.5));
#310=CARTESIAN_POINT('Origin',(-2.22044604925031E-15,7.,-30.5));
#311=CARTESIAN_POINT('',(-8.09258920247408,14.,-30.5));
#312=CARTESIAN_POINT('',(-8.09258920247408,0.,-30.5));
#313=CARTESIAN_POINT('Origin',(-2.22044604925031E-15,7.,-30.5));
#314=CARTESIAN_POINT('',(-8.09258920247408,14.,-40.5));
#315=CARTESIAN_POINT('',(-8.09258920247408,14.,-30.5));
#316=CARTESIAN_POINT('',(-8.09258920247408,0.,-40.5));
#317=CARTESIAN_POINT('Origin',(-2.22044604925031E-15,7.,-40.5));
#318=CARTESIAN_POINT('',(-8.09258920247408,0.,-30.5));
#319=CARTESIAN_POINT('Origin',(-2.22044604925031E-15,7.,-40.5));
#320=CARTESIAN_POINT('',(-8.09258920247408,14.,-40.5));
#321=CARTESIAN_POINT('',(-8.09258920247408,0.,-40.5));
#322=CARTESIAN_POINT('Origin',(12.5,0.,-30.5));
#323=CARTESIAN_POINT('',(12.5,14.,-30.5));
#324=CARTESIAN_POINT('',(12.5,14.,-30.5));
#325=CARTESIAN_POINT('',(12.5,0.,-30.5));
#326=CARTESIAN_POINT('',(12.5,0.,-30.5));
#327=CARTESIAN_POINT('',(12.5,0.,-30.5));
#328=CARTESIAN_POINT('Origin',(12.5,0.,-30.5));
#329=CARTESIAN_POINT('',(-12.5,0.,-30.5));
#330=CARTESIAN_POINT('',(12.5,0.,-30.5));
#331=CARTESIAN_POINT('',(-12.5,14.,-30.5));
#332=CARTESIAN_POINT('',(-12.5,0.,-30.5));
#333=CARTESIAN_POINT('',(12.5,14.,-30.5));
#334=CARTESIAN_POINT('Origin',(0.,0.,0.));
#335=CARTESIAN_POINT('',(-4.5075,14.,5.52009544715669E-16));
#336=CARTESIAN_POINT('Origin',(0.,14.,0.));
#337=CARTESIAN_POINT('',(-4.5075,0.,5.52009544715669E-16));
#338=CARTESIAN_POINT('',(-4.5075,0.,5.52009544715669E-16));
#339=CARTESIAN_POINT('Origin',(0.,0.,0.));
#340=CARTESIAN_POINT('Origin',(0.,0.,0.));
#341=CARTESIAN_POINT('',(-12.5,0.,-1.53080849893419E-15));
#342=CARTESIAN_POINT('',(12.5,0.,0.));
#343=CARTESIAN_POINT('Origin',(0.,0.,0.));
#344=CARTESIAN_POINT('',(12.5,14.,0.));
#345=CARTESIAN_POINT('',(12.5,0.,0.));
#346=CARTESIAN_POINT('',(-12.5,14.,-1.53080849893419E-15));
#347=CARTESIAN_POINT('Origin',(0.,14.,0.));
#348=CARTESIAN_POINT('',(-12.5,0.,-1.53080849893419E-15));
#349=CARTESIAN_POINT('Origin',(-12.5,0.,-30.5));
#350=CARTESIAN_POINT('',(-12.5,0.,-30.5));
#351=CARTESIAN_POINT('',(-12.5,14.,-30.5));
#352=CARTESIAN_POINT('Origin',(12.5,0.,0.));
#353=CARTESIAN_POINT('',(12.5,0.,-22.5));
#354=CARTESIAN_POINT('',(12.5,14.,-22.5));
#355=CARTESIAN_POINT('Origin',(0.,14.,-9.));
#356=CARTESIAN_POINT('Origin',(0.,0.,-9.));
#357=UNCERTAINTY_MEASURE_WITH_UNIT(LENGTH_MEASURE(0.01),#361,
'DISTANCE_ACCURACY_VALUE',
'Maximum model space distance between geometric entities at asserted c
onnectivities');
#358=UNCERTAINTY_MEASURE_WITH_UNIT(LENGTH_MEASURE(0.01),#361,
'DISTANCE_ACCURACY_VALUE',
'Maximum model space distance between geometric entities at asserted c
onnectivities');
#359=(
GEOMETRIC_REPRESENTATION_CONTEXT(3)
GLOBAL_UNCERTAINTY_ASSIGNED_CONTEXT((#357))
GLOBAL_UNIT_ASSIGNED_CONTEXT((#361,#363,#364))
REPRESENTATION_CONTEXT('','3D')
);
#360=(
GEOMETRIC_REPRESENTATION_CONTEXT(3)
GLOBAL_UNCERTAINTY_ASSIGNED_CONTEXT((#358))
GLOBAL_UNIT_ASSIGNED_CONTEXT((#361,#363,#364))
REPRESENTATION_CONTEXT('','3D')
);
#361=(
LENGTH_UNIT()
NAMED_UNIT(*)
SI_UNIT(.MILLI.,.METRE.)
);
#362=(
LENGTH_UNIT()
NAMED_UNIT(*)
SI_UNIT($,.METRE.)
);
#363=(
NAMED_UNIT(*)
PLANE_ANGLE_UNIT()
SI_UNIT($,.RADIAN.)
);
#364=(
NAMED_UNIT(*)
SI_UNIT($,.STERADIAN.)
SOLID_ANGLE_UNIT()
);
#365=SHAPE_DEFINITION_REPRESENTATION(#366,#367);
#366=PRODUCT_DEFINITION_SHAPE('',$,#369);
#367=SHAPE_REPRESENTATION('',(#221),#359);
#368=PRODUCT_DEFINITION_CONTEXT('part definition',#373,'design');
#369=PRODUCT_DEFINITION('(Unsaved)','(Unsaved)',#370,#368);
#370=PRODUCT_DEFINITION_FORMATION('',$,#375);
#371=PRODUCT_RELATED_PRODUCT_CATEGORY('(Unsaved)','(Unsaved)',(#375));
#372=APPLICATION_PROTOCOL_DEFINITION('international standard',
'automotive_design',2009,#373);
#373=APPLICATION_CONTEXT(
'Core Data for Automotive Mechanical Design Process');
#374=PRODUCT_CONTEXT('part definition',#373,'mechanical');
#375=PRODUCT('(Unsaved)','(Unsaved)',$,(#374));
#376=PRESENTATION_STYLE_ASSIGNMENT((#377));
#377=SURFACE_STYLE_USAGE(.BOTH.,#378);
#378=SURFACE_SIDE_STYLE('',(#379));
#379=SURFACE_STYLE_FILL_AREA(#380);
#380=FILL_AREA_STYLE('Steel - Satin',(#381));
#381=FILL_AREA_STYLE_COLOUR('Steel - Satin',#382);
#382=COLOUR_RGB('Steel - Satin',0.627450980392157,0.627450980392157,0.627450980392157);
ENDSEC;
END-ISO-10303-21;
