ISO-10303-21;
HEADER;
/* Generated by software containing ST-Developer
 * from STEP Tools, Inc. (www.steptools.com) 
 */

FILE_DESCRIPTION(
/* description */ (''),
/* implementation_level */ '2;1');

FILE_NAME(
/* name */ 'D3 v2.step',
/* time_stamp */ '2024-09-28T16:58:49-03:00',
/* author */ (''),
/* organization */ (''),
/* preprocessor_version */ 'ST-DEVELOPER v20',
/* originating_system */ 'Autodesk Translation Framework v13.20.0.188',

/* authorisation */ '');

FILE_SCHEMA (('AUTOMOTIVE_DESIGN { 1 0 10303 214 3 1 1 }'));
ENDSEC;

DATA;
#10=MECHANICAL_DESIGN_GEOMETRIC_PRESENTATION_REPRESENTATION('',(#13),#428);
#11=SHAPE_REPRESENTATION_RELATIONSHIP('SRR','None',#435,#12);
#12=ADVANCED_BREP_SHAPE_REPRESENTATION('',(#14),#427);
#13=STYLED_ITEM('',(#444),#14);
#14=MANIFOLD_SOLID_BREP('Body1',#248);
#15=FACE_BOUND('',#50,.T.);
#16=FACE_BOUND('',#52,.T.);
#17=PLANE('',#268);
#18=PLANE('',#269);
#19=PLANE('',#270);
#20=PLANE('',#274);
#21=PLANE('',#278);
#22=PLANE('',#282);
#23=PLANE('',#283);
#24=PLANE('',#284);
#25=FACE_OUTER_BOUND('',#38,.T.);
#26=FACE_OUTER_BOUND('',#39,.T.);
#27=FACE_OUTER_BOUND('',#40,.T.);
#28=FACE_OUTER_BOUND('',#41,.T.);
#29=FACE_OUTER_BOUND('',#42,.T.);
#30=FACE_OUTER_BOUND('',#43,.T.);
#31=FACE_OUTER_BOUND('',#44,.T.);
#32=FACE_OUTER_BOUND('',#45,.T.);
#33=FACE_OUTER_BOUND('',#46,.T.);
#34=FACE_OUTER_BOUND('',#47,.T.);
#35=FACE_OUTER_BOUND('',#48,.T.);
#36=FACE_OUTER_BOUND('',#49,.T.);
#37=FACE_OUTER_BOUND('',#51,.T.);
#38=EDGE_LOOP('',(#164,#165,#166,#167));
#39=EDGE_LOOP('',(#168,#169,#170,#171));
#40=EDGE_LOOP('',(#172,#173,#174,#175));
#41=EDGE_LOOP('',(#176,#177,#178,#179));
#42=EDGE_LOOP('',(#180,#181,#182,#183));
#43=EDGE_LOOP('',(#184,#185,#186,#187));
#44=EDGE_LOOP('',(#188,#189,#190,#191));
#45=EDGE_LOOP('',(#192,#193,#194,#195));
#46=EDGE_LOOP('',(#196,#197,#198,#199));
#47=EDGE_LOOP('',(#200,#201,#202,#203));
#48=EDGE_LOOP('',(#204,#205,#206,#207));
#49=EDGE_LOOP('',(#208,#209,#210,#211,#212,#213,#214,#215,#216,#217));
#50=EDGE_LOOP('',(#218));
#51=EDGE_LOOP('',(#219,#220,#221,#222,#223,#224,#225,#226,#227,#228));
#52=EDGE_LOOP('',(#229));
#53=LINE('',#362,#76);
#54=LINE('',#365,#77);
#55=LINE('',#371,#78);
#56=LINE('',#374,#79);
#57=LINE('',#376,#80);
#58=LINE('',#377,#81);
#59=LINE('',#380,#82);
#60=LINE('',#382,#83);
#61=LINE('',#383,#84);
#62=LINE('',#386,#85);
#63=LINE('',#388,#86);
#64=LINE('',#389,#87);
#65=LINE('',#394,#88);
#66=LINE('',#398,#89);
#67=LINE('',#400,#90);
#68=LINE('',#401,#91);
#69=LINE('',#407,#92);
#70=LINE('',#410,#93);
#71=LINE('',#412,#94);
#72=LINE('',#413,#95);
#73=LINE('',#419,#96);
#74=LINE('',#421,#97);
#75=LINE('',#422,#98);
#76=VECTOR('',#291,10.);
#77=VECTOR('',#294,10.);
#78=VECTOR('',#299,10.);
#79=VECTOR('',#302,10.);
#80=VECTOR('',#305,10.);
#81=VECTOR('',#306,10.);
#82=VECTOR('',#309,10.);
#83=VECTOR('',#310,10.);
#84=VECTOR('',#311,10.);
#85=VECTOR('',#314,10.);
#86=VECTOR('',#315,10.);
#87=VECTOR('',#316,10.);
#88=VECTOR('',#321,4.5075);
#89=VECTOR('',#326,10.);
#90=VECTOR('',#327,10.);
#91=VECTOR('',#328,10.);
#92=VECTOR('',#335,10.);
#93=VECTOR('',#338,10.);
#94=VECTOR('',#339,10.);
#95=VECTOR('',#340,10.);
#96=VECTOR('',#347,10.);
#97=VECTOR('',#350,10.);
#98=VECTOR('',#351,10.);
#99=CIRCLE('',#263,10.7);
#100=CIRCLE('',#264,10.7);
#101=CIRCLE('',#266,10.7);
#102=CIRCLE('',#267,10.7);
#103=CIRCLE('',#272,4.5075);
#104=CIRCLE('',#273,4.5075);
#105=CIRCLE('',#276,6.);
#106=CIRCLE('',#277,6.);
#107=CIRCLE('',#280,6.);
#108=CIRCLE('',#281,6.);
#109=VERTEX_POINT('',#358);
#110=VERTEX_POINT('',#359);
#111=VERTEX_POINT('',#361);
#112=VERTEX_POINT('',#363);
#113=VERTEX_POINT('',#367);
#114=VERTEX_POINT('',#368);
#115=VERTEX_POINT('',#370);
#116=VERTEX_POINT('',#372);
#117=VERTEX_POINT('',#379);
#118=VERTEX_POINT('',#381);
#119=VERTEX_POINT('',#385);
#120=VERTEX_POINT('',#387);
#121=VERTEX_POINT('',#391);
#122=VERTEX_POINT('',#393);
#123=VERTEX_POINT('',#397);
#124=VERTEX_POINT('',#399);
#125=VERTEX_POINT('',#403);
#126=VERTEX_POINT('',#405);
#127=VERTEX_POINT('',#409);
#128=VERTEX_POINT('',#411);
#129=VERTEX_POINT('',#415);
#130=VERTEX_POINT('',#417);
#131=EDGE_CURVE('',#109,#110,#99,.T.);
#132=EDGE_CURVE('',#109,#111,#53,.T.);
#133=EDGE_CURVE('',#112,#111,#100,.T.);
#134=EDGE_CURVE('',#110,#112,#54,.T.);
#135=EDGE_CURVE('',#113,#114,#101,.T.);
#136=EDGE_CURVE('',#113,#115,#55,.T.);
#137=EDGE_CURVE('',#116,#115,#102,.T.);
#138=EDGE_CURVE('',#114,#116,#56,.T.);
#139=EDGE_CURVE('',#115,#112,#57,.T.);
#140=EDGE_CURVE('',#111,#116,#58,.T.);
#141=EDGE_CURVE('',#117,#110,#59,.T.);
#142=EDGE_CURVE('',#118,#117,#60,.T.);
#143=EDGE_CURVE('',#118,#109,#61,.T.);
#144=EDGE_CURVE('',#114,#119,#62,.T.);
#145=EDGE_CURVE('',#119,#120,#63,.T.);
#146=EDGE_CURVE('',#113,#120,#64,.T.);
#147=EDGE_CURVE('',#121,#121,#103,.T.);
#148=EDGE_CURVE('',#121,#122,#65,.T.);
#149=EDGE_CURVE('',#122,#122,#104,.T.);
#150=EDGE_CURVE('',#123,#118,#66,.T.);
#151=EDGE_CURVE('',#124,#117,#67,.T.);
#152=EDGE_CURVE('',#123,#124,#68,.T.);
#153=EDGE_CURVE('',#125,#123,#105,.T.);
#154=EDGE_CURVE('',#126,#124,#106,.T.);
#155=EDGE_CURVE('',#125,#126,#69,.T.);
#156=EDGE_CURVE('',#127,#125,#70,.T.);
#157=EDGE_CURVE('',#128,#126,#71,.T.);
#158=EDGE_CURVE('',#127,#128,#72,.T.);
#159=EDGE_CURVE('',#129,#127,#107,.T.);
#160=EDGE_CURVE('',#130,#128,#108,.T.);
#161=EDGE_CURVE('',#129,#130,#73,.T.);
#162=EDGE_CURVE('',#119,#129,#74,.T.);
#163=EDGE_CURVE('',#120,#130,#75,.T.);
#164=ORIENTED_EDGE('',*,*,#131,.F.);
#165=ORIENTED_EDGE('',*,*,#132,.T.);
#166=ORIENTED_EDGE('',*,*,#133,.F.);
#167=ORIENTED_EDGE('',*,*,#134,.F.);
#168=ORIENTED_EDGE('',*,*,#135,.F.);
#169=ORIENTED_EDGE('',*,*,#136,.T.);
#170=ORIENTED_EDGE('',*,*,#137,.F.);
#171=ORIENTED_EDGE('',*,*,#138,.F.);
#172=ORIENTED_EDGE('',*,*,#137,.T.);
#173=ORIENTED_EDGE('',*,*,#139,.T.);
#174=ORIENTED_EDGE('',*,*,#133,.T.);
#175=ORIENTED_EDGE('',*,*,#140,.T.);
#176=ORIENTED_EDGE('',*,*,#131,.T.);
#177=ORIENTED_EDGE('',*,*,#141,.F.);
#178=ORIENTED_EDGE('',*,*,#142,.F.);
#179=ORIENTED_EDGE('',*,*,#143,.T.);
#180=ORIENTED_EDGE('',*,*,#135,.T.);
#181=ORIENTED_EDGE('',*,*,#144,.T.);
#182=ORIENTED_EDGE('',*,*,#145,.T.);
#183=ORIENTED_EDGE('',*,*,#146,.F.);
#184=ORIENTED_EDGE('',*,*,#147,.F.);
#185=ORIENTED_EDGE('',*,*,#148,.T.);
#186=ORIENTED_EDGE('',*,*,#149,.T.);
#187=ORIENTED_EDGE('',*,*,#148,.F.);
#188=ORIENTED_EDGE('',*,*,#150,.T.);
#189=ORIENTED_EDGE('',*,*,#142,.T.);
#190=ORIENTED_EDGE('',*,*,#151,.F.);
#191=ORIENTED_EDGE('',*,*,#152,.F.);
#192=ORIENTED_EDGE('',*,*,#153,.T.);
#193=ORIENTED_EDGE('',*,*,#152,.T.);
#194=ORIENTED_EDGE('',*,*,#154,.F.);
#195=ORIENTED_EDGE('',*,*,#155,.F.);
#196=ORIENTED_EDGE('',*,*,#156,.T.);
#197=ORIENTED_EDGE('',*,*,#155,.T.);
#198=ORIENTED_EDGE('',*,*,#157,.F.);
#199=ORIENTED_EDGE('',*,*,#158,.F.);
#200=ORIENTED_EDGE('',*,*,#159,.T.);
#201=ORIENTED_EDGE('',*,*,#158,.T.);
#202=ORIENTED_EDGE('',*,*,#160,.F.);
#203=ORIENTED_EDGE('',*,*,#161,.F.);
#204=ORIENTED_EDGE('',*,*,#162,.T.);
#205=ORIENTED_EDGE('',*,*,#161,.T.);
#206=ORIENTED_EDGE('',*,*,#163,.F.);
#207=ORIENTED_EDGE('',*,*,#145,.F.);
#208=ORIENTED_EDGE('',*,*,#163,.T.);
#209=ORIENTED_EDGE('',*,*,#160,.T.);
#210=ORIENTED_EDGE('',*,*,#157,.T.);
#211=ORIENTED_EDGE('',*,*,#154,.T.);
#212=ORIENTED_EDGE('',*,*,#151,.T.);
#213=ORIENTED_EDGE('',*,*,#141,.T.);
#214=ORIENTED_EDGE('',*,*,#134,.T.);
#215=ORIENTED_EDGE('',*,*,#139,.F.);
#216=ORIENTED_EDGE('',*,*,#136,.F.);
#217=ORIENTED_EDGE('',*,*,#146,.T.);
#218=ORIENTED_EDGE('',*,*,#147,.T.);
#219=ORIENTED_EDGE('',*,*,#162,.F.);
#220=ORIENTED_EDGE('',*,*,#144,.F.);
#221=ORIENTED_EDGE('',*,*,#138,.T.);
#222=ORIENTED_EDGE('',*,*,#140,.F.);
#223=ORIENTED_EDGE('',*,*,#132,.F.);
#224=ORIENTED_EDGE('',*,*,#143,.F.);
#225=ORIENTED_EDGE('',*,*,#150,.F.);
#226=ORIENTED_EDGE('',*,*,#153,.F.);
#227=ORIENTED_EDGE('',*,*,#156,.F.);
#228=ORIENTED_EDGE('',*,*,#159,.F.);
#229=ORIENTED_EDGE('',*,*,#149,.F.);
#230=CYLINDRICAL_SURFACE('',#262,10.7);
#231=CYLINDRICAL_SURFACE('',#265,10.7);
#232=CYLINDRICAL_SURFACE('',#271,4.5075);
#233=CYLINDRICAL_SURFACE('',#275,6.);
#234=CYLINDRICAL_SURFACE('',#279,6.);
#235=ADVANCED_FACE('',(#25),#230,.T.);
#236=ADVANCED_FACE('',(#26),#231,.T.);
#237=ADVANCED_FACE('',(#27),#17,.T.);
#238=ADVANCED_FACE('',(#28),#18,.T.);
#239=ADVANCED_FACE('',(#29),#19,.T.);
#240=ADVANCED_FACE('',(#30),#232,.F.);
#241=ADVANCED_FACE('',(#31),#20,.T.);
#242=ADVANCED_FACE('',(#32),#233,.T.);
#243=ADVANCED_FACE('',(#33),#21,.T.);
#244=ADVANCED_FACE('',(#34),#234,.T.);
#245=ADVANCED_FACE('',(#35),#22,.T.);
#246=ADVANCED_FACE('',(#36,#15),#23,.T.);
#247=ADVANCED_FACE('',(#37,#16),#24,.F.);
#248=CLOSED_SHELL('',(#235,#236,#237,#238,#239,#240,#241,#242,#243,#244,
#245,#246,#247));
#249=DERIVED_UNIT_ELEMENT(#251,1.);
#250=DERIVED_UNIT_ELEMENT(#430,-3.);
#251=(
MASS_UNIT()
NAMED_UNIT(*)
SI_UNIT(.KILO.,.GRAM.)
);
#252=DERIVED_UNIT((#249,#250));
#253=MEASURE_REPRESENTATION_ITEM('density measure',
POSITIVE_RATIO_MEASURE(7850.),#252);
#254=PROPERTY_DEFINITION_REPRESENTATION(#259,#256);
#255=PROPERTY_DEFINITION_REPRESENTATION(#260,#257);
#256=REPRESENTATION('material name',(#258),#427);
#257=REPRESENTATION('density',(#253),#427);
#258=DESCRIPTIVE_REPRESENTATION_ITEM('Steel','Steel');
#259=PROPERTY_DEFINITION('material property','material name',#437);
#260=PROPERTY_DEFINITION('material property','density of part',#437);
#261=AXIS2_PLACEMENT_3D('',#356,#285,#286);
#262=AXIS2_PLACEMENT_3D('',#357,#287,#288);
#263=AXIS2_PLACEMENT_3D('',#360,#289,#290);
#264=AXIS2_PLACEMENT_3D('',#364,#292,#293);
#265=AXIS2_PLACEMENT_3D('',#366,#295,#296);
#266=AXIS2_PLACEMENT_3D('',#369,#297,#298);
#267=AXIS2_PLACEMENT_3D('',#373,#300,#301);
#268=AXIS2_PLACEMENT_3D('',#375,#303,#304);
#269=AXIS2_PLACEMENT_3D('',#378,#307,#308);
#270=AXIS2_PLACEMENT_3D('',#384,#312,#313);
#271=AXIS2_PLACEMENT_3D('',#390,#317,#318);
#272=AXIS2_PLACEMENT_3D('',#392,#319,#320);
#273=AXIS2_PLACEMENT_3D('',#395,#322,#323);
#274=AXIS2_PLACEMENT_3D('',#396,#324,#325);
#275=AXIS2_PLACEMENT_3D('',#402,#329,#330);
#276=AXIS2_PLACEMENT_3D('',#404,#331,#332);
#277=AXIS2_PLACEMENT_3D('',#406,#333,#334);
#278=AXIS2_PLACEMENT_3D('',#408,#336,#337);
#279=AXIS2_PLACEMENT_3D('',#414,#341,#342);
#280=AXIS2_PLACEMENT_3D('',#416,#343,#344);
#281=AXIS2_PLACEMENT_3D('',#418,#345,#346);
#282=AXIS2_PLACEMENT_3D('',#420,#348,#349);
#283=AXIS2_PLACEMENT_3D('',#423,#352,#353);
#284=AXIS2_PLACEMENT_3D('',#424,#354,#355);
#285=DIRECTION('axis',(0.,0.,1.));
#286=DIRECTION('refdir',(1.,0.,0.));
#287=DIRECTION('center_axis',(0.,0.,-1.));
#288=DIRECTION('ref_axis',(1.,0.,0.));
#289=DIRECTION('center_axis',(0.,0.,1.));
#290=DIRECTION('ref_axis',(1.,0.,0.));
#291=DIRECTION('',(0.,0.,-1.));
#292=DIRECTION('center_axis',(0.,0.,-1.));
#293=DIRECTION('ref_axis',(1.,0.,0.));
#294=DIRECTION('',(0.,0.,-1.));
#295=DIRECTION('center_axis',(0.,0.,-1.));
#296=DIRECTION('ref_axis',(-1.,-1.22464679914735E-16,0.));
#297=DIRECTION('center_axis',(0.,0.,1.));
#298=DIRECTION('ref_axis',(1.,0.,0.));
#299=DIRECTION('',(0.,0.,-1.));
#300=DIRECTION('center_axis',(0.,0.,-1.));
#301=DIRECTION('ref_axis',(1.,0.,0.));
#302=DIRECTION('',(0.,0.,-1.));
#303=DIRECTION('center_axis',(0.,0.,-1.));
#304=DIRECTION('ref_axis',(1.,0.,0.));
#305=DIRECTION('',(1.,0.,0.));
#306=DIRECTION('',(-1.,0.,0.));
#307=DIRECTION('center_axis',(0.,0.,-1.));
#308=DIRECTION('ref_axis',(-1.,0.,0.));
#309=DIRECTION('',(-1.,0.,0.));
#310=DIRECTION('',(0.,1.,0.));
#311=DIRECTION('',(-1.,0.,0.));
#312=DIRECTION('center_axis',(0.,0.,-1.));
#313=DIRECTION('ref_axis',(-1.,0.,0.));
#314=DIRECTION('',(-1.,0.,0.));
#315=DIRECTION('',(0.,1.,0.));
#316=DIRECTION('',(-1.,0.,0.));
#317=DIRECTION('center_axis',(0.,1.,0.));
#318=DIRECTION('ref_axis',(1.,0.,0.));
#319=DIRECTION('center_axis',(0.,-1.,0.));
#320=DIRECTION('ref_axis',(1.,0.,0.));
#321=DIRECTION('',(0.,-1.,0.));
#322=DIRECTION('center_axis',(0.,-1.,0.));
#323=DIRECTION('ref_axis',(1.,0.,0.));
#324=DIRECTION('center_axis',(1.,0.,-3.41607084500048E-16));
#325=DIRECTION('ref_axis',(-3.41607084500048E-16,0.,-1.));
#326=DIRECTION('',(-3.41607084500048E-16,0.,-1.));
#327=DIRECTION('',(-3.41607084500048E-16,0.,-1.));
#328=DIRECTION('',(0.,1.,0.));
#329=DIRECTION('center_axis',(0.,1.,0.));
#330=DIRECTION('ref_axis',(0.,0.,1.));
#331=DIRECTION('center_axis',(0.,1.,0.));
#332=DIRECTION('ref_axis',(0.,0.,1.));
#333=DIRECTION('center_axis',(0.,1.,0.));
#334=DIRECTION('ref_axis',(0.,0.,1.));
#335=DIRECTION('',(0.,1.,0.));
#336=DIRECTION('center_axis',(0.,0.,1.));
#337=DIRECTION('ref_axis',(1.,0.,0.));
#338=DIRECTION('',(1.,0.,0.));
#339=DIRECTION('',(1.,0.,0.));
#340=DIRECTION('',(0.,1.,0.));
#341=DIRECTION('center_axis',(0.,1.,0.));
#342=DIRECTION('ref_axis',(-1.,0.,0.));
#343=DIRECTION('center_axis',(0.,1.,0.));
#344=DIRECTION('ref_axis',(-1.,0.,0.));
#345=DIRECTION('center_axis',(0.,1.,0.));
#346=DIRECTION('ref_axis',(-1.,0.,0.));
#347=DIRECTION('',(0.,1.,0.));
#348=DIRECTION('center_axis',(-1.,0.,0.));
#349=DIRECTION('ref_axis',(0.,0.,1.));
#350=DIRECTION('',(0.,0.,1.));
#351=DIRECTION('',(0.,0.,1.));
#352=DIRECTION('center_axis',(0.,1.,0.));
#353=DIRECTION('ref_axis',(1.,0.,0.));
#354=DIRECTION('center_axis',(0.,1.,0.));
#355=DIRECTION('ref_axis',(1.,0.,0.));
#356=CARTESIAN_POINT('',(0.,0.,0.));
#357=CARTESIAN_POINT('Origin',(-2.22044604925031E-15,7.,-30.5));
#358=CARTESIAN_POINT('',(8.09258920247407,0.,-30.5));
#359=CARTESIAN_POINT('',(8.09258920247407,14.,-30.5));
#360=CARTESIAN_POINT('Origin',(-2.22044604925031E-15,7.,-30.5));
#361=CARTESIAN_POINT('',(8.09258920247407,0.,-40.5));
#362=CARTESIAN_POINT('',(8.09258920247407,0.,-30.5));
#363=CARTESIAN_POINT('',(8.09258920247407,14.,-40.5));
#364=CARTESIAN_POINT('Origin',(-2.22044604925031E-15,7.,-40.5));
#365=CARTESIAN_POINT('',(8.09258920247407,14.,-30.5));
#366=CARTESIAN_POINT('Origin',(-2.22044604925031E-15,7.,-30.5));
#367=CARTESIAN_POINT('',(-8.09258920247408,14.,-30.5));
#368=CARTESIAN_POINT('',(-8.09258920247408,0.,-30.5));
#369=CARTESIAN_POINT('Origin',(-2.22044604925031E-15,7.,-30.5));
#370=CARTESIAN_POINT('',(-8.09258920247408,14.,-40.5));
#371=CARTESIAN_POINT('',(-8.09258920247408,14.,-30.5));
#372=CARTESIAN_POINT('',(-8.09258920247408,0.,-40.5));
#373=CARTESIAN_POINT('Origin',(-2.22044604925031E-15,7.,-40.5));
#374=CARTESIAN_POINT('',(-8.09258920247408,0.,-30.5));
#375=CARTESIAN_POINT('Origin',(-2.22044604925031E-15,7.,-40.5));
#376=CARTESIAN_POINT('',(-8.09258920247408,14.,-40.5));
#377=CARTESIAN_POINT('',(-8.09258920247408,0.,-40.5));
#378=CARTESIAN_POINT('Origin',(12.5,0.,-30.5));
#379=CARTESIAN_POINT('',(12.5,14.,-30.5));
#380=CARTESIAN_POINT('',(12.5,14.,-30.5));
#381=CARTESIAN_POINT('',(12.5,0.,-30.5));
#382=CARTESIAN_POINT('',(12.5,0.,-30.5));
#383=CARTESIAN_POINT('',(12.5,0.,-30.5));
#384=CARTESIAN_POINT('Origin',(12.5,0.,-30.5));
#385=CARTESIAN_POINT('',(-12.5,0.,-30.5));
#386=CARTESIAN_POINT('',(12.5,0.,-30.5));
#387=CARTESIAN_POINT('',(-12.5,14.,-30.5));
#388=CARTESIAN_POINT('',(-12.5,0.,-30.5));
#389=CARTESIAN_POINT('',(12.5,14.,-30.5));
#390=CARTESIAN_POINT('Origin',(0.,0.,0.));
#391=CARTESIAN_POINT('',(-4.5075,14.,5.52009544715669E-16));
#392=CARTESIAN_POINT('Origin',(0.,14.,0.));
#393=CARTESIAN_POINT('',(-4.5075,0.,5.52009544715669E-16));
#394=CARTESIAN_POINT('',(-4.5075,0.,5.52009544715669E-16));
#395=CARTESIAN_POINT('Origin',(0.,0.,0.));
#396=CARTESIAN_POINT('Origin',(12.5,0.,6.5));
#397=CARTESIAN_POINT('',(12.5,0.,6.5));
#398=CARTESIAN_POINT('',(12.5,0.,6.5));
#399=CARTESIAN_POINT('',(12.5,14.,6.5));
#400=CARTESIAN_POINT('',(12.5,14.,6.5));
#401=CARTESIAN_POINT('',(12.5,0.,6.5));
#402=CARTESIAN_POINT('Origin',(6.5,0.,6.5));
#403=CARTESIAN_POINT('',(6.5,0.,12.5));
#404=CARTESIAN_POINT('Origin',(6.5,0.,6.5));
#405=CARTESIAN_POINT('',(6.5,14.,12.5));
#406=CARTESIAN_POINT('Origin',(6.5,14.,6.5));
#407=CARTESIAN_POINT('',(6.5,0.,12.5));
#408=CARTESIAN_POINT('Origin',(-6.5,0.,12.5));
#409=CARTESIAN_POINT('',(-6.5,0.,12.5));
#410=CARTESIAN_POINT('',(-6.5,0.,12.5));
#411=CARTESIAN_POINT('',(-6.5,14.,12.5));
#412=CARTESIAN_POINT('',(-6.5,14.,12.5));
#413=CARTESIAN_POINT('',(-6.5,0.,12.5));
#414=CARTESIAN_POINT('Origin',(-6.5,0.,6.5));
#415=CARTESIAN_POINT('',(-12.5,0.,6.5));
#416=CARTESIAN_POINT('Origin',(-6.5,0.,6.5));
#417=CARTESIAN_POINT('',(-12.5,14.,6.5));
#418=CARTESIAN_POINT('Origin',(-6.5,14.,6.5));
#419=CARTESIAN_POINT('',(-12.5,0.,6.5));
#420=CARTESIAN_POINT('Origin',(-12.5,0.,-30.5));
#421=CARTESIAN_POINT('',(-12.5,0.,-30.5));
#422=CARTESIAN_POINT('',(-12.5,14.,-30.5));
#423=CARTESIAN_POINT('Origin',(0.,14.,-9.));
#424=CARTESIAN_POINT('Origin',(0.,0.,-9.));
#425=UNCERTAINTY_MEASURE_WITH_UNIT(LENGTH_MEASURE(0.01),#429,
'DISTANCE_ACCURACY_VALUE',
'Maximum model space distance between geometric entities at asserted c
onnectivities');
#426=UNCERTAINTY_MEASURE_WITH_UNIT(LENGTH_MEASURE(0.01),#429,
'DISTANCE_ACCURACY_VALUE',
'Maximum model space distance between geometric entities at asserted c
onnectivities');
#427=(
GEOMETRIC_REPRESENTATION_CONTEXT(3)
GLOBAL_UNCERTAINTY_ASSIGNED_CONTEXT((#425))
GLOBAL_UNIT_ASSIGNED_CONTEXT((#429,#431,#432))
REPRESENTATION_CONTEXT('','3D')
);
#428=(
GEOMETRIC_REPRESENTATION_CONTEXT(3)
GLOBAL_UNCERTAINTY_ASSIGNED_CONTEXT((#426))
GLOBAL_UNIT_ASSIGNED_CONTEXT((#429,#431,#432))
REPRESENTATION_CONTEXT('','3D')
);
#429=(
LENGTH_UNIT()
NAMED_UNIT(*)
SI_UNIT(.MILLI.,.METRE.)
);
#430=(
LENGTH_UNIT()
NAMED_UNIT(*)
SI_UNIT($,.METRE.)
);
#431=(
NAMED_UNIT(*)
PLANE_ANGLE_UNIT()
SI_UNIT($,.RADIAN.)
);
#432=(
NAMED_UNIT(*)
SI_UNIT($,.STERADIAN.)
SOLID_ANGLE_UNIT()
);
#433=SHAPE_DEFINITION_REPRESENTATION(#434,#435);
#434=PRODUCT_DEFINITION_SHAPE('',$,#437);
#435=SHAPE_REPRESENTATION('',(#261),#427);
#436=PRODUCT_DEFINITION_CONTEXT('part definition',#441,'design');
#437=PRODUCT_DEFINITION('D3','D3 v1',#438,#436);
#438=PRODUCT_DEFINITION_FORMATION('',$,#443);
#439=PRODUCT_RELATED_PRODUCT_CATEGORY('D3 v1','D3 v1',(#443));
#440=APPLICATION_PROTOCOL_DEFINITION('international standard',
'automotive_design',2009,#441);
#441=APPLICATION_CONTEXT(
'Core Data for Automotive Mechanical Design Process');
#442=PRODUCT_CONTEXT('part definition',#441,'mechanical');
#443=PRODUCT('D3','D3 v1',$,(#442));
#444=PRESENTATION_STYLE_ASSIGNMENT((#445));
#445=SURFACE_STYLE_USAGE(.BOTH.,#446);
#446=SURFACE_SIDE_STYLE('',(#447));
#447=SURFACE_STYLE_FILL_AREA(#448);
#448=FILL_AREA_STYLE('Steel - Satin',(#449));
#449=FILL_AREA_STYLE_COLOUR('Steel - Satin',#450);
#450=COLOUR_RGB('Steel - Satin',0.627450980392157,0.627450980392157,0.627450980392157);
ENDSEC;
END-ISO-10303-21;
