ISO-10303-21;
HEADER;
/* Generated by software containing ST-Developer
 * from STEP Tools, Inc. (www.steptools.com) 
 */

FILE_DESCRIPTION(
/* description */ (''),
/* implementation_level */ '2;1');

FILE_NAME(
/* name */ 'Adaptador_motor.step',
/* time_stamp */ '2024-09-25T22:26:55-03:00',
/* author */ (''),
/* organization */ (''),
/* preprocessor_version */ 'ST-DEVELOPER v20',
/* originating_system */ 'Autodesk Translation Framework v13.20.0.188',

/* authorisation */ '');

FILE_SCHEMA (('AUTOMOTIVE_DESIGN { 1 0 10303 214 3 1 1 }'));
ENDSEC;

DATA;
#10=MECHANICAL_DESIGN_GEOMETRIC_PRESENTATION_REPRESENTATION('',(#13),#1031);
#11=SHAPE_REPRESENTATION_RELATIONSHIP('SRR','None',#1038,#12);
#12=ADVANCED_BREP_SHAPE_REPRESENTATION('',(#14),#1030);
#13=STYLED_ITEM('',(#1047),#14);
#14=MANIFOLD_SOLID_BREP('Body1',#605);
#15=ELLIPSE('',#657,10.3589510595225,10.);
#16=ELLIPSE('',#660,10.3589510595225,10.);
#17=FACE_BOUND('',#87,.T.);
#18=FACE_BOUND('',#88,.T.);
#19=FACE_BOUND('',#90,.T.);
#20=FACE_BOUND('',#91,.T.);
#21=FACE_BOUND('',#95,.T.);
#22=FACE_BOUND('',#96,.T.);
#23=FACE_BOUND('',#99,.T.);
#24=FACE_BOUND('',#100,.T.);
#25=FACE_BOUND('',#103,.T.);
#26=FACE_BOUND('',#106,.T.);
#27=FACE_BOUND('',#111,.T.);
#28=FACE_BOUND('',#117,.T.);
#29=FACE_BOUND('',#123,.T.);
#30=FACE_BOUND('',#125,.T.);
#31=PLANE('',#631);
#32=PLANE('',#635);
#33=PLANE('',#636);
#34=PLANE('',#637);
#35=PLANE('',#638);
#36=PLANE('',#645);
#37=PLANE('',#646);
#38=PLANE('',#647);
#39=PLANE('',#649);
#40=PLANE('',#653);
#41=PLANE('',#658);
#42=PLANE('',#661);
#43=PLANE('',#669);
#44=PLANE('',#670);
#45=PLANE('',#678);
#46=PLANE('',#679);
#47=PLANE('',#680);
#48=FACE_OUTER_BOUND('',#80,.T.);
#49=FACE_OUTER_BOUND('',#81,.T.);
#50=FACE_OUTER_BOUND('',#82,.T.);
#51=FACE_OUTER_BOUND('',#83,.T.);
#52=FACE_OUTER_BOUND('',#84,.T.);
#53=FACE_OUTER_BOUND('',#85,.T.);
#54=FACE_OUTER_BOUND('',#86,.T.);
#55=FACE_OUTER_BOUND('',#89,.T.);
#56=FACE_OUTER_BOUND('',#92,.T.);
#57=FACE_OUTER_BOUND('',#93,.T.);
#58=FACE_OUTER_BOUND('',#94,.T.);
#59=FACE_OUTER_BOUND('',#97,.T.);
#60=FACE_OUTER_BOUND('',#98,.T.);
#61=FACE_OUTER_BOUND('',#101,.T.);
#62=FACE_OUTER_BOUND('',#102,.T.);
#63=FACE_OUTER_BOUND('',#104,.T.);
#64=FACE_OUTER_BOUND('',#105,.T.);
#65=FACE_OUTER_BOUND('',#107,.T.);
#66=FACE_OUTER_BOUND('',#108,.T.);
#67=FACE_OUTER_BOUND('',#109,.T.);
#68=FACE_OUTER_BOUND('',#110,.T.);
#69=FACE_OUTER_BOUND('',#112,.T.);
#70=FACE_OUTER_BOUND('',#113,.T.);
#71=FACE_OUTER_BOUND('',#114,.T.);
#72=FACE_OUTER_BOUND('',#115,.T.);
#73=FACE_OUTER_BOUND('',#116,.T.);
#74=FACE_OUTER_BOUND('',#118,.T.);
#75=FACE_OUTER_BOUND('',#119,.T.);
#76=FACE_OUTER_BOUND('',#120,.T.);
#77=FACE_OUTER_BOUND('',#121,.T.);
#78=FACE_OUTER_BOUND('',#122,.T.);
#79=FACE_OUTER_BOUND('',#124,.T.);
#80=EDGE_LOOP('',(#394,#395,#396,#397));
#81=EDGE_LOOP('',(#398,#399,#400,#401));
#82=EDGE_LOOP('',(#402,#403,#404,#405));
#83=EDGE_LOOP('',(#406,#407,#408,#409));
#84=EDGE_LOOP('',(#410,#411,#412,#413,#414,#415,#416,#417,#418,#419,#420,
#421,#422,#423));
#85=EDGE_LOOP('',(#424,#425,#426,#427));
#86=EDGE_LOOP('',(#428,#429,#430,#431));
#87=EDGE_LOOP('',(#432));
#88=EDGE_LOOP('',(#433));
#89=EDGE_LOOP('',(#434,#435,#436,#437));
#90=EDGE_LOOP('',(#438));
#91=EDGE_LOOP('',(#439));
#92=EDGE_LOOP('',(#440,#441,#442,#443,#444,#445,#446,#447,#448,#449,#450,
#451,#452,#453,#454,#455,#456,#457));
#93=EDGE_LOOP('',(#458,#459,#460,#461));
#94=EDGE_LOOP('',(#462,#463,#464,#465));
#95=EDGE_LOOP('',(#466));
#96=EDGE_LOOP('',(#467));
#97=EDGE_LOOP('',(#468,#469,#470,#471));
#98=EDGE_LOOP('',(#472,#473,#474,#475));
#99=EDGE_LOOP('',(#476));
#100=EDGE_LOOP('',(#477));
#101=EDGE_LOOP('',(#478,#479,#480,#481));
#102=EDGE_LOOP('',(#482,#483,#484,#485,#486));
#103=EDGE_LOOP('',(#487));
#104=EDGE_LOOP('',(#488,#489,#490,#491));
#105=EDGE_LOOP('',(#492,#493,#494,#495,#496));
#106=EDGE_LOOP('',(#497));
#107=EDGE_LOOP('',(#498,#499,#500,#501));
#108=EDGE_LOOP('',(#502,#503,#504,#505));
#109=EDGE_LOOP('',(#506,#507,#508,#509));
#110=EDGE_LOOP('',(#510,#511,#512,#513));
#111=EDGE_LOOP('',(#514));
#112=EDGE_LOOP('',(#515,#516,#517,#518));
#113=EDGE_LOOP('',(#519,#520,#521,#522));
#114=EDGE_LOOP('',(#523,#524,#525,#526));
#115=EDGE_LOOP('',(#527,#528,#529,#530,#531));
#116=EDGE_LOOP('',(#532));
#117=EDGE_LOOP('',(#533));
#118=EDGE_LOOP('',(#534,#535,#536,#537));
#119=EDGE_LOOP('',(#538,#539,#540,#541));
#120=EDGE_LOOP('',(#542,#543,#544,#545));
#121=EDGE_LOOP('',(#546,#547,#548,#549,#550));
#122=EDGE_LOOP('',(#551));
#123=EDGE_LOOP('',(#552));
#124=EDGE_LOOP('',(#553,#554,#555,#556));
#125=EDGE_LOOP('',(#557));
#126=LINE('',#864,#178);
#127=LINE('',#870,#179);
#128=LINE('',#876,#180);
#129=LINE('',#882,#181);
#130=LINE('',#887,#182);
#131=LINE('',#891,#183);
#132=LINE('',#893,#184);
#133=LINE('',#895,#185);
#134=LINE('',#899,#186);
#135=LINE('',#901,#187);
#136=LINE('',#903,#188);
#137=LINE('',#905,#189);
#138=LINE('',#907,#190);
#139=LINE('',#911,#191);
#140=LINE('',#912,#192);
#141=LINE('',#916,#193);
#142=LINE('',#917,#194);
#143=LINE('',#918,#195);
#144=LINE('',#921,#196);
#145=LINE('',#922,#197);
#146=LINE('',#925,#198);
#147=LINE('',#926,#199);
#148=LINE('',#931,#200);
#149=LINE('',#933,#201);
#150=LINE('',#935,#202);
#151=LINE('',#939,#203);
#152=LINE('',#943,#204);
#153=LINE('',#945,#205);
#154=LINE('',#947,#206);
#155=LINE('',#951,#207);
#156=LINE('',#953,#208);
#157=LINE('',#955,#209);
#158=LINE('',#958,#210);
#159=LINE('',#960,#211);
#160=LINE('',#961,#212);
#161=LINE('',#963,#213);
#162=LINE('',#965,#214);
#163=LINE('',#969,#215);
#164=LINE('',#974,#216);
#165=LINE('',#978,#217);
#166=LINE('',#984,#218);
#167=LINE('',#985,#219);
#168=LINE('',#987,#220);
#169=LINE('',#991,#221);
#170=LINE('',#994,#222);
#171=LINE('',#1000,#223);
#172=LINE('',#1005,#224);
#173=LINE('',#1007,#225);
#174=LINE('',#1012,#226);
#175=LINE('',#1018,#227);
#176=LINE('',#1023,#228);
#177=LINE('',#1025,#229);
#178=VECTOR('',#687,2.75);
#179=VECTOR('',#694,2.75);
#180=VECTOR('',#701,2.1);
#181=VECTOR('',#708,2.1);
#182=VECTOR('',#713,10.);
#183=VECTOR('',#716,10.);
#184=VECTOR('',#717,10.);
#185=VECTOR('',#718,10.);
#186=VECTOR('',#721,10.);
#187=VECTOR('',#722,10.);
#188=VECTOR('',#723,10.);
#189=VECTOR('',#724,10.);
#190=VECTOR('',#725,10.);
#191=VECTOR('',#728,10.);
#192=VECTOR('',#729,10.);
#193=VECTOR('',#732,10.);
#194=VECTOR('',#733,10.);
#195=VECTOR('',#734,10.);
#196=VECTOR('',#737,10.);
#197=VECTOR('',#738,10.);
#198=VECTOR('',#741,10.);
#199=VECTOR('',#742,10.);
#200=VECTOR('',#747,10.);
#201=VECTOR('',#748,10.);
#202=VECTOR('',#749,10.);
#203=VECTOR('',#752,10.);
#204=VECTOR('',#755,10.);
#205=VECTOR('',#756,10.);
#206=VECTOR('',#757,10.);
#207=VECTOR('',#760,10.);
#208=VECTOR('',#761,10.);
#209=VECTOR('',#762,10.);
#210=VECTOR('',#767,30.);
#211=VECTOR('',#770,10.);
#212=VECTOR('',#771,10.);
#213=VECTOR('',#774,10.);
#214=VECTOR('',#777,10.);
#215=VECTOR('',#782,10.);
#216=VECTOR('',#789,10.);
#217=VECTOR('',#794,10.);
#218=VECTOR('',#801,10.);
#219=VECTOR('',#802,10.);
#220=VECTOR('',#805,10.);
#221=VECTOR('',#810,10.);
#222=VECTOR('',#813,10.);
#223=VECTOR('',#820,8.50000000000001);
#224=VECTOR('',#827,4.);
#225=VECTOR('',#830,10.);
#226=VECTOR('',#837,8.50000000000001);
#227=VECTOR('',#844,4.);
#228=VECTOR('',#851,10.);
#229=VECTOR('',#854,10.);
#230=CIRCLE('',#620,2.75);
#231=CIRCLE('',#621,2.75);
#232=CIRCLE('',#623,2.75);
#233=CIRCLE('',#624,2.75);
#234=CIRCLE('',#626,2.1);
#235=CIRCLE('',#627,2.1);
#236=CIRCLE('',#629,2.1);
#237=CIRCLE('',#630,2.1);
#238=CIRCLE('',#632,15.5);
#239=CIRCLE('',#633,30.);
#240=CIRCLE('',#634,30.);
#241=CIRCLE('',#639,30.);
#242=CIRCLE('',#640,10.);
#243=CIRCLE('',#641,10.);
#244=CIRCLE('',#642,30.);
#245=CIRCLE('',#643,15.5);
#246=CIRCLE('',#650,15.);
#247=CIRCLE('',#651,8.50000000000001);
#248=CIRCLE('',#654,15.);
#249=CIRCLE('',#655,8.50000000000001);
#250=CIRCLE('',#662,15.);
#251=CIRCLE('',#663,4.);
#252=CIRCLE('',#665,8.50000000000001);
#253=CIRCLE('',#667,4.);
#254=CIRCLE('',#672,8.50000000000001);
#255=CIRCLE('',#674,4.);
#256=CIRCLE('',#675,4.);
#257=CIRCLE('',#677,15.);
#258=VERTEX_POINT('',#861);
#259=VERTEX_POINT('',#863);
#260=VERTEX_POINT('',#867);
#261=VERTEX_POINT('',#869);
#262=VERTEX_POINT('',#873);
#263=VERTEX_POINT('',#875);
#264=VERTEX_POINT('',#879);
#265=VERTEX_POINT('',#881);
#266=VERTEX_POINT('',#885);
#267=VERTEX_POINT('',#886);
#268=VERTEX_POINT('',#888);
#269=VERTEX_POINT('',#890);
#270=VERTEX_POINT('',#892);
#271=VERTEX_POINT('',#894);
#272=VERTEX_POINT('',#896);
#273=VERTEX_POINT('',#898);
#274=VERTEX_POINT('',#900);
#275=VERTEX_POINT('',#902);
#276=VERTEX_POINT('',#904);
#277=VERTEX_POINT('',#906);
#278=VERTEX_POINT('',#908);
#279=VERTEX_POINT('',#910);
#280=VERTEX_POINT('',#914);
#281=VERTEX_POINT('',#915);
#282=VERTEX_POINT('',#920);
#283=VERTEX_POINT('',#924);
#284=VERTEX_POINT('',#928);
#285=VERTEX_POINT('',#930);
#286=VERTEX_POINT('',#932);
#287=VERTEX_POINT('',#934);
#288=VERTEX_POINT('',#936);
#289=VERTEX_POINT('',#938);
#290=VERTEX_POINT('',#940);
#291=VERTEX_POINT('',#942);
#292=VERTEX_POINT('',#944);
#293=VERTEX_POINT('',#946);
#294=VERTEX_POINT('',#948);
#295=VERTEX_POINT('',#950);
#296=VERTEX_POINT('',#952);
#297=VERTEX_POINT('',#954);
#298=VERTEX_POINT('',#968);
#299=VERTEX_POINT('',#971);
#300=VERTEX_POINT('',#976);
#301=VERTEX_POINT('',#979);
#302=VERTEX_POINT('',#982);
#303=VERTEX_POINT('',#989);
#304=VERTEX_POINT('',#993);
#305=VERTEX_POINT('',#996);
#306=VERTEX_POINT('',#999);
#307=VERTEX_POINT('',#1003);
#308=VERTEX_POINT('',#1011);
#309=VERTEX_POINT('',#1015);
#310=VERTEX_POINT('',#1017);
#311=VERTEX_POINT('',#1021);
#312=EDGE_CURVE('',#258,#258,#230,.T.);
#313=EDGE_CURVE('',#258,#259,#126,.T.);
#314=EDGE_CURVE('',#259,#259,#231,.T.);
#315=EDGE_CURVE('',#260,#260,#232,.T.);
#316=EDGE_CURVE('',#260,#261,#127,.T.);
#317=EDGE_CURVE('',#261,#261,#233,.T.);
#318=EDGE_CURVE('',#262,#262,#234,.T.);
#319=EDGE_CURVE('',#262,#263,#128,.T.);
#320=EDGE_CURVE('',#263,#263,#235,.T.);
#321=EDGE_CURVE('',#264,#264,#236,.T.);
#322=EDGE_CURVE('',#264,#265,#129,.T.);
#323=EDGE_CURVE('',#265,#265,#237,.T.);
#324=EDGE_CURVE('',#266,#267,#130,.T.);
#325=EDGE_CURVE('',#267,#268,#238,.T.);
#326=EDGE_CURVE('',#268,#269,#131,.T.);
#327=EDGE_CURVE('',#269,#270,#132,.T.);
#328=EDGE_CURVE('',#270,#271,#133,.T.);
#329=EDGE_CURVE('',#272,#271,#239,.T.);
#330=EDGE_CURVE('',#272,#273,#134,.T.);
#331=EDGE_CURVE('',#274,#273,#135,.T.);
#332=EDGE_CURVE('',#275,#274,#136,.T.);
#333=EDGE_CURVE('',#276,#275,#137,.T.);
#334=EDGE_CURVE('',#277,#276,#138,.T.);
#335=EDGE_CURVE('',#278,#277,#240,.T.);
#336=EDGE_CURVE('',#278,#279,#139,.T.);
#337=EDGE_CURVE('',#279,#266,#140,.T.);
#338=EDGE_CURVE('',#280,#281,#141,.T.);
#339=EDGE_CURVE('',#280,#266,#142,.T.);
#340=EDGE_CURVE('',#281,#279,#143,.T.);
#341=EDGE_CURVE('',#282,#278,#144,.T.);
#342=EDGE_CURVE('',#281,#282,#145,.T.);
#343=EDGE_CURVE('',#280,#283,#146,.T.);
#344=EDGE_CURVE('',#267,#283,#147,.T.);
#345=EDGE_CURVE('',#284,#282,#241,.T.);
#346=EDGE_CURVE('',#285,#284,#148,.T.);
#347=EDGE_CURVE('',#286,#285,#149,.T.);
#348=EDGE_CURVE('',#286,#287,#150,.T.);
#349=EDGE_CURVE('',#288,#287,#242,.T.);
#350=EDGE_CURVE('',#288,#289,#151,.T.);
#351=EDGE_CURVE('',#290,#289,#243,.T.);
#352=EDGE_CURVE('',#291,#290,#152,.T.);
#353=EDGE_CURVE('',#291,#292,#153,.T.);
#354=EDGE_CURVE('',#292,#293,#154,.T.);
#355=EDGE_CURVE('',#294,#293,#244,.T.);
#356=EDGE_CURVE('',#294,#295,#155,.T.);
#357=EDGE_CURVE('',#295,#296,#156,.T.);
#358=EDGE_CURVE('',#296,#297,#157,.T.);
#359=EDGE_CURVE('',#283,#297,#245,.T.);
#360=EDGE_CURVE('',#277,#284,#158,.T.);
#361=EDGE_CURVE('',#271,#294,#159,.T.);
#362=EDGE_CURVE('',#295,#270,#160,.T.);
#363=EDGE_CURVE('',#296,#269,#161,.T.);
#364=EDGE_CURVE('',#297,#268,#162,.T.);
#365=EDGE_CURVE('',#276,#298,#163,.T.);
#366=EDGE_CURVE('',#298,#285,#246,.T.);
#367=EDGE_CURVE('',#299,#299,#247,.T.);
#368=EDGE_CURVE('',#293,#272,#164,.T.);
#369=EDGE_CURVE('',#300,#292,#248,.T.);
#370=EDGE_CURVE('',#273,#300,#165,.T.);
#371=EDGE_CURVE('',#301,#301,#249,.T.);
#372=EDGE_CURVE('',#275,#302,#15,.F.);
#373=EDGE_CURVE('',#275,#288,#166,.T.);
#374=EDGE_CURVE('',#287,#302,#167,.T.);
#375=EDGE_CURVE('',#289,#274,#168,.T.);
#376=EDGE_CURVE('',#274,#303,#16,.T.);
#377=EDGE_CURVE('',#303,#290,#169,.T.);
#378=EDGE_CURVE('',#303,#304,#170,.T.);
#379=EDGE_CURVE('',#304,#291,#250,.T.);
#380=EDGE_CURVE('',#305,#305,#251,.T.);
#381=EDGE_CURVE('',#301,#306,#171,.T.);
#382=EDGE_CURVE('',#306,#306,#252,.T.);
#383=EDGE_CURVE('',#307,#307,#253,.T.);
#384=EDGE_CURVE('',#307,#305,#172,.T.);
#385=EDGE_CURVE('',#304,#300,#173,.T.);
#386=EDGE_CURVE('',#299,#308,#174,.T.);
#387=EDGE_CURVE('',#308,#308,#254,.T.);
#388=EDGE_CURVE('',#309,#309,#255,.T.);
#389=EDGE_CURVE('',#309,#310,#175,.T.);
#390=EDGE_CURVE('',#310,#310,#256,.T.);
#391=EDGE_CURVE('',#311,#286,#257,.T.);
#392=EDGE_CURVE('',#311,#298,#176,.T.);
#393=EDGE_CURVE('',#302,#311,#177,.T.);
#394=ORIENTED_EDGE('',*,*,#312,.F.);
#395=ORIENTED_EDGE('',*,*,#313,.T.);
#396=ORIENTED_EDGE('',*,*,#314,.F.);
#397=ORIENTED_EDGE('',*,*,#313,.F.);
#398=ORIENTED_EDGE('',*,*,#315,.F.);
#399=ORIENTED_EDGE('',*,*,#316,.T.);
#400=ORIENTED_EDGE('',*,*,#317,.F.);
#401=ORIENTED_EDGE('',*,*,#316,.F.);
#402=ORIENTED_EDGE('',*,*,#318,.F.);
#403=ORIENTED_EDGE('',*,*,#319,.T.);
#404=ORIENTED_EDGE('',*,*,#320,.F.);
#405=ORIENTED_EDGE('',*,*,#319,.F.);
#406=ORIENTED_EDGE('',*,*,#321,.F.);
#407=ORIENTED_EDGE('',*,*,#322,.T.);
#408=ORIENTED_EDGE('',*,*,#323,.F.);
#409=ORIENTED_EDGE('',*,*,#322,.F.);
#410=ORIENTED_EDGE('',*,*,#324,.T.);
#411=ORIENTED_EDGE('',*,*,#325,.T.);
#412=ORIENTED_EDGE('',*,*,#326,.T.);
#413=ORIENTED_EDGE('',*,*,#327,.T.);
#414=ORIENTED_EDGE('',*,*,#328,.T.);
#415=ORIENTED_EDGE('',*,*,#329,.F.);
#416=ORIENTED_EDGE('',*,*,#330,.T.);
#417=ORIENTED_EDGE('',*,*,#331,.F.);
#418=ORIENTED_EDGE('',*,*,#332,.F.);
#419=ORIENTED_EDGE('',*,*,#333,.F.);
#420=ORIENTED_EDGE('',*,*,#334,.F.);
#421=ORIENTED_EDGE('',*,*,#335,.F.);
#422=ORIENTED_EDGE('',*,*,#336,.T.);
#423=ORIENTED_EDGE('',*,*,#337,.T.);
#424=ORIENTED_EDGE('',*,*,#338,.F.);
#425=ORIENTED_EDGE('',*,*,#339,.T.);
#426=ORIENTED_EDGE('',*,*,#337,.F.);
#427=ORIENTED_EDGE('',*,*,#340,.F.);
#428=ORIENTED_EDGE('',*,*,#341,.F.);
#429=ORIENTED_EDGE('',*,*,#342,.F.);
#430=ORIENTED_EDGE('',*,*,#340,.T.);
#431=ORIENTED_EDGE('',*,*,#336,.F.);
#432=ORIENTED_EDGE('',*,*,#320,.T.);
#433=ORIENTED_EDGE('',*,*,#323,.T.);
#434=ORIENTED_EDGE('',*,*,#324,.F.);
#435=ORIENTED_EDGE('',*,*,#339,.F.);
#436=ORIENTED_EDGE('',*,*,#343,.T.);
#437=ORIENTED_EDGE('',*,*,#344,.F.);
#438=ORIENTED_EDGE('',*,*,#318,.T.);
#439=ORIENTED_EDGE('',*,*,#321,.T.);
#440=ORIENTED_EDGE('',*,*,#343,.F.);
#441=ORIENTED_EDGE('',*,*,#338,.T.);
#442=ORIENTED_EDGE('',*,*,#342,.T.);
#443=ORIENTED_EDGE('',*,*,#345,.F.);
#444=ORIENTED_EDGE('',*,*,#346,.F.);
#445=ORIENTED_EDGE('',*,*,#347,.F.);
#446=ORIENTED_EDGE('',*,*,#348,.T.);
#447=ORIENTED_EDGE('',*,*,#349,.F.);
#448=ORIENTED_EDGE('',*,*,#350,.T.);
#449=ORIENTED_EDGE('',*,*,#351,.F.);
#450=ORIENTED_EDGE('',*,*,#352,.F.);
#451=ORIENTED_EDGE('',*,*,#353,.T.);
#452=ORIENTED_EDGE('',*,*,#354,.T.);
#453=ORIENTED_EDGE('',*,*,#355,.F.);
#454=ORIENTED_EDGE('',*,*,#356,.T.);
#455=ORIENTED_EDGE('',*,*,#357,.T.);
#456=ORIENTED_EDGE('',*,*,#358,.T.);
#457=ORIENTED_EDGE('',*,*,#359,.F.);
#458=ORIENTED_EDGE('',*,*,#341,.T.);
#459=ORIENTED_EDGE('',*,*,#335,.T.);
#460=ORIENTED_EDGE('',*,*,#360,.T.);
#461=ORIENTED_EDGE('',*,*,#345,.T.);
#462=ORIENTED_EDGE('',*,*,#361,.F.);
#463=ORIENTED_EDGE('',*,*,#328,.F.);
#464=ORIENTED_EDGE('',*,*,#362,.F.);
#465=ORIENTED_EDGE('',*,*,#356,.F.);
#466=ORIENTED_EDGE('',*,*,#312,.T.);
#467=ORIENTED_EDGE('',*,*,#315,.T.);
#468=ORIENTED_EDGE('',*,*,#357,.F.);
#469=ORIENTED_EDGE('',*,*,#362,.T.);
#470=ORIENTED_EDGE('',*,*,#327,.F.);
#471=ORIENTED_EDGE('',*,*,#363,.F.);
#472=ORIENTED_EDGE('',*,*,#358,.F.);
#473=ORIENTED_EDGE('',*,*,#363,.T.);
#474=ORIENTED_EDGE('',*,*,#326,.F.);
#475=ORIENTED_EDGE('',*,*,#364,.F.);
#476=ORIENTED_EDGE('',*,*,#314,.T.);
#477=ORIENTED_EDGE('',*,*,#317,.T.);
#478=ORIENTED_EDGE('',*,*,#364,.T.);
#479=ORIENTED_EDGE('',*,*,#325,.F.);
#480=ORIENTED_EDGE('',*,*,#344,.T.);
#481=ORIENTED_EDGE('',*,*,#359,.T.);
#482=ORIENTED_EDGE('',*,*,#360,.F.);
#483=ORIENTED_EDGE('',*,*,#334,.T.);
#484=ORIENTED_EDGE('',*,*,#365,.T.);
#485=ORIENTED_EDGE('',*,*,#366,.T.);
#486=ORIENTED_EDGE('',*,*,#346,.T.);
#487=ORIENTED_EDGE('',*,*,#367,.T.);
#488=ORIENTED_EDGE('',*,*,#361,.T.);
#489=ORIENTED_EDGE('',*,*,#355,.T.);
#490=ORIENTED_EDGE('',*,*,#368,.T.);
#491=ORIENTED_EDGE('',*,*,#329,.T.);
#492=ORIENTED_EDGE('',*,*,#368,.F.);
#493=ORIENTED_EDGE('',*,*,#354,.F.);
#494=ORIENTED_EDGE('',*,*,#369,.F.);
#495=ORIENTED_EDGE('',*,*,#370,.F.);
#496=ORIENTED_EDGE('',*,*,#330,.F.);
#497=ORIENTED_EDGE('',*,*,#371,.F.);
#498=ORIENTED_EDGE('',*,*,#372,.F.);
#499=ORIENTED_EDGE('',*,*,#373,.T.);
#500=ORIENTED_EDGE('',*,*,#349,.T.);
#501=ORIENTED_EDGE('',*,*,#374,.T.);
#502=ORIENTED_EDGE('',*,*,#373,.F.);
#503=ORIENTED_EDGE('',*,*,#332,.T.);
#504=ORIENTED_EDGE('',*,*,#375,.F.);
#505=ORIENTED_EDGE('',*,*,#350,.F.);
#506=ORIENTED_EDGE('',*,*,#376,.T.);
#507=ORIENTED_EDGE('',*,*,#377,.T.);
#508=ORIENTED_EDGE('',*,*,#351,.T.);
#509=ORIENTED_EDGE('',*,*,#375,.T.);
#510=ORIENTED_EDGE('',*,*,#377,.F.);
#511=ORIENTED_EDGE('',*,*,#378,.T.);
#512=ORIENTED_EDGE('',*,*,#379,.T.);
#513=ORIENTED_EDGE('',*,*,#352,.T.);
#514=ORIENTED_EDGE('',*,*,#380,.T.);
#515=ORIENTED_EDGE('',*,*,#371,.T.);
#516=ORIENTED_EDGE('',*,*,#381,.T.);
#517=ORIENTED_EDGE('',*,*,#382,.T.);
#518=ORIENTED_EDGE('',*,*,#381,.F.);
#519=ORIENTED_EDGE('',*,*,#383,.T.);
#520=ORIENTED_EDGE('',*,*,#384,.T.);
#521=ORIENTED_EDGE('',*,*,#380,.F.);
#522=ORIENTED_EDGE('',*,*,#384,.F.);
#523=ORIENTED_EDGE('',*,*,#379,.F.);
#524=ORIENTED_EDGE('',*,*,#385,.T.);
#525=ORIENTED_EDGE('',*,*,#369,.T.);
#526=ORIENTED_EDGE('',*,*,#353,.F.);
#527=ORIENTED_EDGE('',*,*,#331,.T.);
#528=ORIENTED_EDGE('',*,*,#370,.T.);
#529=ORIENTED_EDGE('',*,*,#385,.F.);
#530=ORIENTED_EDGE('',*,*,#378,.F.);
#531=ORIENTED_EDGE('',*,*,#376,.F.);
#532=ORIENTED_EDGE('',*,*,#382,.F.);
#533=ORIENTED_EDGE('',*,*,#383,.F.);
#534=ORIENTED_EDGE('',*,*,#367,.F.);
#535=ORIENTED_EDGE('',*,*,#386,.T.);
#536=ORIENTED_EDGE('',*,*,#387,.F.);
#537=ORIENTED_EDGE('',*,*,#386,.F.);
#538=ORIENTED_EDGE('',*,*,#388,.F.);
#539=ORIENTED_EDGE('',*,*,#389,.T.);
#540=ORIENTED_EDGE('',*,*,#390,.T.);
#541=ORIENTED_EDGE('',*,*,#389,.F.);
#542=ORIENTED_EDGE('',*,*,#391,.T.);
#543=ORIENTED_EDGE('',*,*,#347,.T.);
#544=ORIENTED_EDGE('',*,*,#366,.F.);
#545=ORIENTED_EDGE('',*,*,#392,.F.);
#546=ORIENTED_EDGE('',*,*,#393,.T.);
#547=ORIENTED_EDGE('',*,*,#392,.T.);
#548=ORIENTED_EDGE('',*,*,#365,.F.);
#549=ORIENTED_EDGE('',*,*,#333,.T.);
#550=ORIENTED_EDGE('',*,*,#372,.T.);
#551=ORIENTED_EDGE('',*,*,#387,.T.);
#552=ORIENTED_EDGE('',*,*,#388,.T.);
#553=ORIENTED_EDGE('',*,*,#374,.F.);
#554=ORIENTED_EDGE('',*,*,#348,.F.);
#555=ORIENTED_EDGE('',*,*,#391,.F.);
#556=ORIENTED_EDGE('',*,*,#393,.F.);
#557=ORIENTED_EDGE('',*,*,#390,.F.);
#558=CYLINDRICAL_SURFACE('',#619,2.75);
#559=CYLINDRICAL_SURFACE('',#622,2.75);
#560=CYLINDRICAL_SURFACE('',#625,2.1);
#561=CYLINDRICAL_SURFACE('',#628,2.1);
#562=CYLINDRICAL_SURFACE('',#644,30.);
#563=CYLINDRICAL_SURFACE('',#648,15.5);
#564=CYLINDRICAL_SURFACE('',#652,30.);
#565=CYLINDRICAL_SURFACE('',#656,10.);
#566=CYLINDRICAL_SURFACE('',#659,10.);
#567=CYLINDRICAL_SURFACE('',#664,8.50000000000001);
#568=CYLINDRICAL_SURFACE('',#666,4.);
#569=CYLINDRICAL_SURFACE('',#668,15.);
#570=CYLINDRICAL_SURFACE('',#671,8.50000000000001);
#571=CYLINDRICAL_SURFACE('',#673,4.);
#572=CYLINDRICAL_SURFACE('',#676,15.);
#573=ADVANCED_FACE('',(#48),#558,.F.);
#574=ADVANCED_FACE('',(#49),#559,.F.);
#575=ADVANCED_FACE('',(#50),#560,.F.);
#576=ADVANCED_FACE('',(#51),#561,.F.);
#577=ADVANCED_FACE('',(#52),#31,.T.);
#578=ADVANCED_FACE('',(#53),#32,.T.);
#579=ADVANCED_FACE('',(#54,#17,#18),#33,.T.);
#580=ADVANCED_FACE('',(#55,#19,#20),#34,.T.);
#581=ADVANCED_FACE('',(#56),#35,.T.);
#582=ADVANCED_FACE('',(#57),#562,.T.);
#583=ADVANCED_FACE('',(#58,#21,#22),#36,.T.);
#584=ADVANCED_FACE('',(#59),#37,.T.);
#585=ADVANCED_FACE('',(#60,#23,#24),#38,.T.);
#586=ADVANCED_FACE('',(#61),#563,.F.);
#587=ADVANCED_FACE('',(#62,#25),#39,.T.);
#588=ADVANCED_FACE('',(#63),#564,.T.);
#589=ADVANCED_FACE('',(#64,#26),#40,.F.);
#590=ADVANCED_FACE('',(#65),#565,.F.);
#591=ADVANCED_FACE('',(#66),#41,.T.);
#592=ADVANCED_FACE('',(#67),#566,.F.);
#593=ADVANCED_FACE('',(#68,#27),#42,.T.);
#594=ADVANCED_FACE('',(#69),#567,.F.);
#595=ADVANCED_FACE('',(#70),#568,.F.);
#596=ADVANCED_FACE('',(#71),#569,.T.);
#597=ADVANCED_FACE('',(#72),#43,.F.);
#598=ADVANCED_FACE('',(#73,#28),#44,.F.);
#599=ADVANCED_FACE('',(#74),#570,.F.);
#600=ADVANCED_FACE('',(#75),#571,.F.);
#601=ADVANCED_FACE('',(#76),#572,.T.);
#602=ADVANCED_FACE('',(#77),#45,.T.);
#603=ADVANCED_FACE('',(#78,#29),#46,.T.);
#604=ADVANCED_FACE('',(#79,#30),#47,.F.);
#605=CLOSED_SHELL('',(#573,#574,#575,#576,#577,#578,#579,#580,#581,#582,
#583,#584,#585,#586,#587,#588,#589,#590,#591,#592,#593,#594,#595,#596,#597,
#598,#599,#600,#601,#602,#603,#604));
#606=DERIVED_UNIT_ELEMENT(#608,1.);
#607=DERIVED_UNIT_ELEMENT(#1033,-3.);
#608=(
MASS_UNIT()
NAMED_UNIT(*)
SI_UNIT(.KILO.,.GRAM.)
);
#609=DERIVED_UNIT((#606,#607));
#610=MEASURE_REPRESENTATION_ITEM('density measure',
POSITIVE_RATIO_MEASURE(7850.),#609);
#611=PROPERTY_DEFINITION_REPRESENTATION(#616,#613);
#612=PROPERTY_DEFINITION_REPRESENTATION(#617,#614);
#613=REPRESENTATION('material name',(#615),#1030);
#614=REPRESENTATION('density',(#610),#1030);
#615=DESCRIPTIVE_REPRESENTATION_ITEM('Steel','Steel');
#616=PROPERTY_DEFINITION('material property','material name',#1040);
#617=PROPERTY_DEFINITION('material property','density of part',#1040);
#618=AXIS2_PLACEMENT_3D('',#859,#681,#682);
#619=AXIS2_PLACEMENT_3D('',#860,#683,#684);
#620=AXIS2_PLACEMENT_3D('',#862,#685,#686);
#621=AXIS2_PLACEMENT_3D('',#865,#688,#689);
#622=AXIS2_PLACEMENT_3D('',#866,#690,#691);
#623=AXIS2_PLACEMENT_3D('',#868,#692,#693);
#624=AXIS2_PLACEMENT_3D('',#871,#695,#696);
#625=AXIS2_PLACEMENT_3D('',#872,#697,#698);
#626=AXIS2_PLACEMENT_3D('',#874,#699,#700);
#627=AXIS2_PLACEMENT_3D('',#877,#702,#703);
#628=AXIS2_PLACEMENT_3D('',#878,#704,#705);
#629=AXIS2_PLACEMENT_3D('',#880,#706,#707);
#630=AXIS2_PLACEMENT_3D('',#883,#709,#710);
#631=AXIS2_PLACEMENT_3D('',#884,#711,#712);
#632=AXIS2_PLACEMENT_3D('',#889,#714,#715);
#633=AXIS2_PLACEMENT_3D('',#897,#719,#720);
#634=AXIS2_PLACEMENT_3D('',#909,#726,#727);
#635=AXIS2_PLACEMENT_3D('',#913,#730,#731);
#636=AXIS2_PLACEMENT_3D('',#919,#735,#736);
#637=AXIS2_PLACEMENT_3D('',#923,#739,#740);
#638=AXIS2_PLACEMENT_3D('',#927,#743,#744);
#639=AXIS2_PLACEMENT_3D('',#929,#745,#746);
#640=AXIS2_PLACEMENT_3D('',#937,#750,#751);
#641=AXIS2_PLACEMENT_3D('',#941,#753,#754);
#642=AXIS2_PLACEMENT_3D('',#949,#758,#759);
#643=AXIS2_PLACEMENT_3D('',#956,#763,#764);
#644=AXIS2_PLACEMENT_3D('',#957,#765,#766);
#645=AXIS2_PLACEMENT_3D('',#959,#768,#769);
#646=AXIS2_PLACEMENT_3D('',#962,#772,#773);
#647=AXIS2_PLACEMENT_3D('',#964,#775,#776);
#648=AXIS2_PLACEMENT_3D('',#966,#778,#779);
#649=AXIS2_PLACEMENT_3D('',#967,#780,#781);
#650=AXIS2_PLACEMENT_3D('',#970,#783,#784);
#651=AXIS2_PLACEMENT_3D('',#972,#785,#786);
#652=AXIS2_PLACEMENT_3D('',#973,#787,#788);
#653=AXIS2_PLACEMENT_3D('',#975,#790,#791);
#654=AXIS2_PLACEMENT_3D('',#977,#792,#793);
#655=AXIS2_PLACEMENT_3D('',#980,#795,#796);
#656=AXIS2_PLACEMENT_3D('',#981,#797,#798);
#657=AXIS2_PLACEMENT_3D('',#983,#799,#800);
#658=AXIS2_PLACEMENT_3D('',#986,#803,#804);
#659=AXIS2_PLACEMENT_3D('',#988,#806,#807);
#660=AXIS2_PLACEMENT_3D('',#990,#808,#809);
#661=AXIS2_PLACEMENT_3D('',#992,#811,#812);
#662=AXIS2_PLACEMENT_3D('',#995,#814,#815);
#663=AXIS2_PLACEMENT_3D('',#997,#816,#817);
#664=AXIS2_PLACEMENT_3D('',#998,#818,#819);
#665=AXIS2_PLACEMENT_3D('',#1001,#821,#822);
#666=AXIS2_PLACEMENT_3D('',#1002,#823,#824);
#667=AXIS2_PLACEMENT_3D('',#1004,#825,#826);
#668=AXIS2_PLACEMENT_3D('',#1006,#828,#829);
#669=AXIS2_PLACEMENT_3D('',#1008,#831,#832);
#670=AXIS2_PLACEMENT_3D('',#1009,#833,#834);
#671=AXIS2_PLACEMENT_3D('',#1010,#835,#836);
#672=AXIS2_PLACEMENT_3D('',#1013,#838,#839);
#673=AXIS2_PLACEMENT_3D('',#1014,#840,#841);
#674=AXIS2_PLACEMENT_3D('',#1016,#842,#843);
#675=AXIS2_PLACEMENT_3D('',#1019,#845,#846);
#676=AXIS2_PLACEMENT_3D('',#1020,#847,#848);
#677=AXIS2_PLACEMENT_3D('',#1022,#849,#850);
#678=AXIS2_PLACEMENT_3D('',#1024,#852,#853);
#679=AXIS2_PLACEMENT_3D('',#1026,#855,#856);
#680=AXIS2_PLACEMENT_3D('',#1027,#857,#858);
#681=DIRECTION('axis',(0.,0.,1.));
#682=DIRECTION('refdir',(1.,0.,0.));
#683=DIRECTION('center_axis',(1.,0.,0.));
#684=DIRECTION('ref_axis',(0.,-1.,0.));
#685=DIRECTION('center_axis',(1.,1.02564481165213E-11,0.));
#686=DIRECTION('ref_axis',(0.,-1.,0.));
#687=DIRECTION('',(1.,0.,0.));
#688=DIRECTION('center_axis',(-1.,5.5019490044468E-16,0.));
#689=DIRECTION('ref_axis',(0.,-1.,0.));
#690=DIRECTION('center_axis',(1.,0.,0.));
#691=DIRECTION('ref_axis',(0.,-1.,0.));
#692=DIRECTION('center_axis',(1.,1.02564481165213E-11,0.));
#693=DIRECTION('ref_axis',(0.,-1.,0.));
#694=DIRECTION('',(1.,0.,0.));
#695=DIRECTION('center_axis',(-1.,5.5019490044468E-16,0.));
#696=DIRECTION('ref_axis',(0.,-1.,0.));
#697=DIRECTION('center_axis',(1.,0.,0.));
#698=DIRECTION('ref_axis',(0.,-1.,0.));
#699=DIRECTION('center_axis',(1.,2.27666855356419E-16,0.));
#700=DIRECTION('ref_axis',(0.,-1.,0.));
#701=DIRECTION('',(1.,0.,0.));
#702=DIRECTION('center_axis',(-1.,1.02545305495006E-11,0.));
#703=DIRECTION('ref_axis',(0.,-1.,0.));
#704=DIRECTION('center_axis',(1.,0.,0.));
#705=DIRECTION('ref_axis',(0.,-1.,0.));
#706=DIRECTION('center_axis',(1.,2.27666855356419E-16,0.));
#707=DIRECTION('ref_axis',(0.,-1.,0.));
#708=DIRECTION('',(1.,0.,0.));
#709=DIRECTION('center_axis',(-1.,1.02545305495006E-11,0.));
#710=DIRECTION('ref_axis',(0.,-1.,0.));
#711=DIRECTION('center_axis',(0.,0.,1.));
#712=DIRECTION('ref_axis',(0.,-1.,0.));
#713=DIRECTION('',(0.,-1.,0.));
#714=DIRECTION('center_axis',(0.,0.,-1.));
#715=DIRECTION('ref_axis',(1.,0.,0.));
#716=DIRECTION('',(5.5019490044468E-16,1.,0.));
#717=DIRECTION('',(-1.,0.,0.));
#718=DIRECTION('',(1.02564481165213E-11,-1.,0.));
#719=DIRECTION('center_axis',(0.,0.,-1.));
#720=DIRECTION('ref_axis',(-0.707106781186547,0.707106781186547,0.));
#721=DIRECTION('',(0.,-1.,0.));
#722=DIRECTION('',(-1.,0.,0.));
#723=DIRECTION('',(-1.,0.,0.));
#724=DIRECTION('',(-1.,0.,0.));
#725=DIRECTION('',(-6.37279646344801E-16,-1.,0.));
#726=DIRECTION('center_axis',(0.,0.,-1.));
#727=DIRECTION('ref_axis',(0.0392321679931102,0.999230122141322,0.));
#728=DIRECTION('',(1.02545305495006E-11,1.,0.));
#729=DIRECTION('',(-1.,0.,0.));
#730=DIRECTION('center_axis',(0.,1.,0.));
#731=DIRECTION('ref_axis',(-1.,0.,0.));
#732=DIRECTION('',(1.,0.,0.));
#733=DIRECTION('',(0.,0.,1.));
#734=DIRECTION('',(0.,0.,1.));
#735=DIRECTION('center_axis',(1.,-1.02545305495006E-11,0.));
#736=DIRECTION('ref_axis',(1.02545305495006E-11,1.,0.));
#737=DIRECTION('',(0.,0.,1.));
#738=DIRECTION('',(-1.02545305495006E-11,-1.,0.));
#739=DIRECTION('center_axis',(-1.,-2.27666855356419E-16,0.));
#740=DIRECTION('ref_axis',(2.27666855356419E-16,-1.,0.));
#741=DIRECTION('',(2.27666855356419E-16,-1.,0.));
#742=DIRECTION('',(0.,0.,-1.));
#743=DIRECTION('center_axis',(0.,-1.14998700121047E-16,-1.));
#744=DIRECTION('ref_axis',(0.,1.,-1.14998700121047E-16));
#745=DIRECTION('center_axis',(0.,1.14998700121047E-16,1.));
#746=DIRECTION('ref_axis',(0.0392321679931102,0.999230122141322,0.));
#747=DIRECTION('',(0.,1.,-4.00080369234291E-17));
#748=DIRECTION('',(1.,0.,0.));
#749=DIRECTION('',(0.,1.,-1.14998700121047E-16));
#750=DIRECTION('center_axis',(0.,-1.14998700121047E-16,-1.));
#751=DIRECTION('ref_axis',(0.707106781186547,0.707106781186547,0.));
#752=DIRECTION('',(-1.,0.,0.));
#753=DIRECTION('center_axis',(0.,-1.14998700121047E-16,-1.));
#754=DIRECTION('ref_axis',(-0.707106781186547,0.707106781186547,0.));
#755=DIRECTION('',(0.,1.,-1.14998700121047E-16));
#756=DIRECTION('',(-1.,0.,0.));
#757=DIRECTION('',(0.,1.,-4.00080369234291E-17));
#758=DIRECTION('center_axis',(0.,1.14998700121047E-16,1.));
#759=DIRECTION('ref_axis',(-0.707106781186547,0.707106781186547,0.));
#760=DIRECTION('',(-1.02564481165213E-11,1.,0.));
#761=DIRECTION('',(1.,0.,0.));
#762=DIRECTION('',(0.,-1.,1.14998700121047E-16));
#763=DIRECTION('center_axis',(0.,0.,-1.));
#764=DIRECTION('ref_axis',(1.,0.,0.));
#765=DIRECTION('center_axis',(0.,0.,-1.));
#766=DIRECTION('ref_axis',(0.0392321679931102,0.999230122141322,0.));
#767=DIRECTION('',(0.,0.,-1.));
#768=DIRECTION('center_axis',(-1.,-1.02564481165213E-11,0.));
#769=DIRECTION('ref_axis',(1.02564481165213E-11,-1.,0.));
#770=DIRECTION('',(0.,0.,-1.));
#771=DIRECTION('',(0.,0.,1.));
#772=DIRECTION('center_axis',(0.,1.,0.));
#773=DIRECTION('ref_axis',(-1.,0.,0.));
#774=DIRECTION('',(0.,0.,1.));
#775=DIRECTION('center_axis',(1.,-5.5019490044468E-16,0.));
#776=DIRECTION('ref_axis',(5.5019490044468E-16,1.,0.));
#777=DIRECTION('',(0.,0.,1.));
#778=DIRECTION('center_axis',(0.,0.,1.));
#779=DIRECTION('ref_axis',(-1.83697019872103E-16,-1.,0.));
#780=DIRECTION('center_axis',(1.,0.,0.));
#781=DIRECTION('ref_axis',(0.,1.,0.));
#782=DIRECTION('',(0.,-0.965348705920133,-0.260963361371523));
#783=DIRECTION('center_axis',(1.,0.,0.));
#784=DIRECTION('ref_axis',(0.,-0.260963361371524,0.965348705920133));
#785=DIRECTION('center_axis',(-1.,0.,0.));
#786=DIRECTION('ref_axis',(0.,1.,0.));
#787=DIRECTION('center_axis',(0.,0.,-1.));
#788=DIRECTION('ref_axis',(-0.707106781186547,0.707106781186547,0.));
#789=DIRECTION('',(0.,0.,1.));
#790=DIRECTION('center_axis',(1.,0.,0.));
#791=DIRECTION('ref_axis',(0.,1.,0.));
#792=DIRECTION('center_axis',(1.,0.,0.));
#793=DIRECTION('ref_axis',(0.,-0.260963361371524,0.965348705920133));
#794=DIRECTION('',(0.,-0.965348705920133,-0.260963361371523));
#795=DIRECTION('center_axis',(-1.,0.,0.));
#796=DIRECTION('ref_axis',(0.,1.,0.));
#797=DIRECTION('center_axis',(0.,0.,-1.));
#798=DIRECTION('ref_axis',(0.707106781186547,0.707106781186547,0.));
#799=DIRECTION('center_axis',(0.,-0.260963361371524,0.965348705920133));
#800=DIRECTION('ref_axis',(0.,0.965348705920133,0.260963361371524));
#801=DIRECTION('',(0.,0.,-1.));
#802=DIRECTION('',(0.,0.,1.));
#803=DIRECTION('center_axis',(0.,-1.,0.));
#804=DIRECTION('ref_axis',(-1.,0.,0.));
#805=DIRECTION('',(0.,0.,1.));
#806=DIRECTION('center_axis',(0.,0.,1.));
#807=DIRECTION('ref_axis',(-0.707106781186547,0.707106781186547,0.));
#808=DIRECTION('center_axis',(0.,-0.260963361371524,0.965348705920133));
#809=DIRECTION('ref_axis',(0.,0.965348705920133,0.260963361371524));
#810=DIRECTION('',(0.,0.,-1.));
#811=DIRECTION('center_axis',(1.,0.,0.));
#812=DIRECTION('ref_axis',(0.,1.,0.));
#813=DIRECTION('',(0.,-0.965348705920133,-0.260963361371524));
#814=DIRECTION('center_axis',(1.,0.,0.));
#815=DIRECTION('ref_axis',(0.,-0.260963361371524,0.965348705920133));
#816=DIRECTION('center_axis',(-1.,0.,0.));
#817=DIRECTION('ref_axis',(0.,1.,0.));
#818=DIRECTION('center_axis',(1.,0.,0.));
#819=DIRECTION('ref_axis',(0.,1.,0.));
#820=DIRECTION('',(1.,0.,0.));
#821=DIRECTION('center_axis',(1.,0.,0.));
#822=DIRECTION('ref_axis',(0.,1.,0.));
#823=DIRECTION('center_axis',(1.,0.,0.));
#824=DIRECTION('ref_axis',(0.,1.,0.));
#825=DIRECTION('center_axis',(-1.,0.,0.));
#826=DIRECTION('ref_axis',(0.,1.,0.));
#827=DIRECTION('',(1.,0.,0.));
#828=DIRECTION('center_axis',(1.,0.,0.));
#829=DIRECTION('ref_axis',(0.,-0.260963361371524,0.965348705920133));
#830=DIRECTION('',(-1.,0.,0.));
#831=DIRECTION('center_axis',(0.,0.260963361371524,-0.965348705920133));
#832=DIRECTION('ref_axis',(0.,-0.965348705920133,-0.260963361371524));
#833=DIRECTION('center_axis',(1.,0.,0.));
#834=DIRECTION('ref_axis',(0.,1.,0.));
#835=DIRECTION('center_axis',(1.,0.,0.));
#836=DIRECTION('ref_axis',(0.,1.,0.));
#837=DIRECTION('',(-1.,0.,0.));
#838=DIRECTION('center_axis',(1.,0.,0.));
#839=DIRECTION('ref_axis',(0.,1.,0.));
#840=DIRECTION('center_axis',(1.,0.,0.));
#841=DIRECTION('ref_axis',(0.,1.,0.));
#842=DIRECTION('center_axis',(-1.,0.,0.));
#843=DIRECTION('ref_axis',(0.,1.,0.));
#844=DIRECTION('',(-1.,0.,0.));
#845=DIRECTION('center_axis',(-1.,0.,0.));
#846=DIRECTION('ref_axis',(0.,1.,0.));
#847=DIRECTION('center_axis',(1.,0.,0.));
#848=DIRECTION('ref_axis',(0.,-0.260963361371524,0.965348705920133));
#849=DIRECTION('center_axis',(1.,0.,0.));
#850=DIRECTION('ref_axis',(0.,-0.260963361371524,0.965348705920133));
#851=DIRECTION('',(1.,0.,0.));
#852=DIRECTION('center_axis',(0.,-0.260963361371524,0.965348705920133));
#853=DIRECTION('ref_axis',(0.,-0.965348705920133,-0.260963361371524));
#854=DIRECTION('',(0.,-0.965348705920133,-0.260963361371524));
#855=DIRECTION('center_axis',(1.,0.,0.));
#856=DIRECTION('ref_axis',(0.,1.,0.));
#857=DIRECTION('center_axis',(1.,0.,0.));
#858=DIRECTION('ref_axis',(0.,1.,0.));
#859=CARTESIAN_POINT('',(0.,0.,0.));
#860=CARTESIAN_POINT('Origin',(-10.,24.8359521458275,30.));
#861=CARTESIAN_POINT('',(-10.,27.5859521458275,30.));
#862=CARTESIAN_POINT('Origin',(-10.,24.8359521458275,30.));
#863=CARTESIAN_POINT('',(-2.,27.5859521458275,30.));
#864=CARTESIAN_POINT('',(-10.,27.5859521458275,30.));
#865=CARTESIAN_POINT('Origin',(-2.00000000000001,24.8359521458275,30.));
#866=CARTESIAN_POINT('Origin',(-10.,24.8359521458275,10.));
#867=CARTESIAN_POINT('',(-10.,27.5859521458275,10.));
#868=CARTESIAN_POINT('Origin',(-10.,24.8359521458275,10.));
#869=CARTESIAN_POINT('',(-2.,27.5859521458275,10.));
#870=CARTESIAN_POINT('',(-10.,27.5859521458275,10.));
#871=CARTESIAN_POINT('Origin',(-2.00000000000001,24.8359521458275,10.));
#872=CARTESIAN_POINT('Origin',(-10.,24.8359521458275,30.));
#873=CARTESIAN_POINT('',(2.,26.9359521458275,30.));
#874=CARTESIAN_POINT('Origin',(2.,24.8359521458275,30.));
#875=CARTESIAN_POINT('',(9.99999999991475,26.9359521458275,30.));
#876=CARTESIAN_POINT('',(-10.,26.9359521458275,30.));
#877=CARTESIAN_POINT('Origin',(9.99999999991475,24.8359521458275,30.));
#878=CARTESIAN_POINT('Origin',(-10.,24.8359521458275,10.));
#879=CARTESIAN_POINT('',(2.,26.9359521458275,10.));
#880=CARTESIAN_POINT('Origin',(2.,24.8359521458275,10.));
#881=CARTESIAN_POINT('',(9.99999999991475,26.9359521458275,10.));
#882=CARTESIAN_POINT('',(-10.,26.9359521458275,10.));
#883=CARTESIAN_POINT('Origin',(9.99999999991475,24.8359521458275,10.));
#884=CARTESIAN_POINT('Origin',(25.,0.,40.));
#885=CARTESIAN_POINT('',(2.,30.,40.));
#886=CARTESIAN_POINT('',(2.,15.3704261489394,40.));
#887=CARTESIAN_POINT('',(2.,10.25,40.));
#888=CARTESIAN_POINT('',(-2.00000000000001,15.3704261489394,40.));
#889=CARTESIAN_POINT('Origin',(0.,0.,40.));
#890=CARTESIAN_POINT('',(-2.,30.,40.));
#891=CARTESIAN_POINT('',(-2.00000000000001,15.3704261489394,40.));
#892=CARTESIAN_POINT('',(-10.,30.,40.));
#893=CARTESIAN_POINT('',(-10.,30.,40.));
#894=CARTESIAN_POINT('',(-9.99999999989407,19.6719042916551,40.));
#895=CARTESIAN_POINT('',(-9.99999999989903,20.1556443707965,40.));
#896=CARTESIAN_POINT('',(-33.,-9.5,40.));
#897=CARTESIAN_POINT('Origin',(-3.,-9.5,40.));
#898=CARTESIAN_POINT('',(-33.,-20.5,40.));
#899=CARTESIAN_POINT('',(-33.,0.,40.));
#900=CARTESIAN_POINT('',(-15.,-20.5,40.));
#901=CARTESIAN_POINT('',(25.,-20.5,40.));
#902=CARTESIAN_POINT('',(15.,-20.5,40.));
#903=CARTESIAN_POINT('',(25.,-20.5,40.));
#904=CARTESIAN_POINT('',(33.,-20.5,40.));
#905=CARTESIAN_POINT('',(25.,-20.5,40.));
#906=CARTESIAN_POINT('',(33.,-9.47690366423965,40.));
#907=CARTESIAN_POINT('',(33.,20.905541816557,40.));
#908=CARTESIAN_POINT('',(9.99999999999528,19.6950006273911,40.));
#909=CARTESIAN_POINT('Origin',(3.,-9.47690366423965,40.));
#910=CARTESIAN_POINT('',(10.,30.,40.));
#911=CARTESIAN_POINT('',(10.,20.155644371,40.));
#912=CARTESIAN_POINT('',(2.,30.,40.));
#913=CARTESIAN_POINT('Origin',(10.,30.,0.));
#914=CARTESIAN_POINT('',(2.,30.,0.));
#915=CARTESIAN_POINT('',(10.,30.,0.));
#916=CARTESIAN_POINT('',(2.,30.,0.));
#917=CARTESIAN_POINT('',(2.,30.,0.));
#918=CARTESIAN_POINT('',(10.,30.,0.));
#919=CARTESIAN_POINT('Origin',(9.99999999991475,11.842719282399,0.));
#920=CARTESIAN_POINT('',(9.99999999999528,19.6950006273911,1.08616102490749E-15));
#921=CARTESIAN_POINT('',(9.99999999999528,19.6950006273911,40.));
#922=CARTESIAN_POINT('',(10.,20.155644371,0.));
#923=CARTESIAN_POINT('Origin',(2.,30.,0.));
#924=CARTESIAN_POINT('',(2.,15.3704261489394,0.));
#925=CARTESIAN_POINT('',(2.,30.,0.));
#926=CARTESIAN_POINT('',(2.,15.3704261489394,0.));
#927=CARTESIAN_POINT('Origin',(25.,-55.5,4.02495450423665E-15));
#928=CARTESIAN_POINT('',(33.,-9.47690366423966,3.7915231171868E-16));
#929=CARTESIAN_POINT('Origin',(3.,-9.47690366423965,4.44089209850063E-15));
#930=CARTESIAN_POINT('',(33.,-55.5,2.22044604925031E-15));
#931=CARTESIAN_POINT('',(33.,-55.5,2.22044604925031E-15));
#932=CARTESIAN_POINT('',(25.,-55.5,2.77555756156289E-15));
#933=CARTESIAN_POINT('',(25.,-55.5,2.77555756156289E-15));
#934=CARTESIAN_POINT('',(25.,-30.5,1.14998700121047E-15));
#935=CARTESIAN_POINT('',(25.,-55.5,4.02495450423665E-15));
#936=CARTESIAN_POINT('',(15.,-20.5,0.));
#937=CARTESIAN_POINT('Origin',(15.,-30.5,4.44089209850063E-15));
#938=CARTESIAN_POINT('',(-15.,-20.5,0.));
#939=CARTESIAN_POINT('',(25.,-20.5,0.));
#940=CARTESIAN_POINT('',(-25.,-30.5,1.14998700121047E-15));
#941=CARTESIAN_POINT('Origin',(-15.,-30.5,4.44089209850063E-15));
#942=CARTESIAN_POINT('',(-25.,-55.5,2.77555756156289E-15));
#943=CARTESIAN_POINT('',(-25.,-55.5,4.02495450423665E-15));
#944=CARTESIAN_POINT('',(-33.,-55.5,2.22044604925031E-15));
#945=CARTESIAN_POINT('',(-25.,-55.5,2.77555756156289E-15));
#946=CARTESIAN_POINT('',(-33.,-9.5,3.80076350772576E-16));
#947=CARTESIAN_POINT('',(-33.,-55.5,2.22044604925031E-15));
#948=CARTESIAN_POINT('',(-9.99999999989407,19.6719042916551,0.));
#949=CARTESIAN_POINT('Origin',(-3.,-9.5,4.44089209850063E-15));
#950=CARTESIAN_POINT('',(-10.,30.,0.));
#951=CARTESIAN_POINT('',(-9.99999999989903,20.1556443707965,0.));
#952=CARTESIAN_POINT('',(-2.,30.,0.));
#953=CARTESIAN_POINT('',(-10.,30.,0.));
#954=CARTESIAN_POINT('',(-2.00000000000001,15.3704261489394,0.));
#955=CARTESIAN_POINT('',(-2.,-17.5,0.));
#956=CARTESIAN_POINT('Origin',(0.,0.,0.));
#957=CARTESIAN_POINT('Origin',(3.,-9.47690366423965,40.));
#958=CARTESIAN_POINT('',(33.,-9.47690366423965,40.));
#959=CARTESIAN_POINT('Origin',(-10.,30.,0.));
#960=CARTESIAN_POINT('',(-9.99999999989407,19.6719042916551,30.));
#961=CARTESIAN_POINT('',(-10.,30.,0.));
#962=CARTESIAN_POINT('Origin',(-2.,30.,0.));
#963=CARTESIAN_POINT('',(-2.,30.,0.));
#964=CARTESIAN_POINT('Origin',(-2.00000000000001,15.3704261489394,0.));
#965=CARTESIAN_POINT('',(-2.,15.3704261489394,0.));
#966=CARTESIAN_POINT('Origin',(0.,0.,0.));
#967=CARTESIAN_POINT('Origin',(33.,-35.25,20.));
#968=CARTESIAN_POINT('',(33.,-59.4144504205729,29.480230588802));
#969=CARTESIAN_POINT('',(33.,-20.5,40.));
#970=CARTESIAN_POINT('Origin',(33.,-55.5,15.));
#971=CARTESIAN_POINT('',(33.,-64.,15.));
#972=CARTESIAN_POINT('Origin',(33.,-55.5,15.));
#973=CARTESIAN_POINT('Origin',(-3.,-9.5,30.));
#974=CARTESIAN_POINT('',(-33.,-9.5,30.));
#975=CARTESIAN_POINT('Origin',(-33.,-35.25,20.));
#976=CARTESIAN_POINT('',(-33.,-59.4144504205729,29.480230588802));
#977=CARTESIAN_POINT('Origin',(-33.,-55.5,15.));
#978=CARTESIAN_POINT('',(-33.,-20.5,40.));
#979=CARTESIAN_POINT('',(-33.,-64.,15.));
#980=CARTESIAN_POINT('Origin',(-33.,-55.5,15.));
#981=CARTESIAN_POINT('Origin',(15.,-30.5,30.));
#982=CARTESIAN_POINT('',(25.,-30.5,37.2966933112239));
#983=CARTESIAN_POINT('Origin',(15.,-30.5,37.2966933112239));
#984=CARTESIAN_POINT('',(15.,-20.5,30.));
#985=CARTESIAN_POINT('',(25.,-30.5,30.));
#986=CARTESIAN_POINT('Origin',(25.,-20.5,40.));
#987=CARTESIAN_POINT('',(-15.,-20.5,30.));
#988=CARTESIAN_POINT('Origin',(-15.,-30.5,30.));
#989=CARTESIAN_POINT('',(-25.,-30.5,37.2966933112239));
#990=CARTESIAN_POINT('Origin',(-15.,-30.5,37.2966933112239));
#991=CARTESIAN_POINT('',(-25.,-30.5,30.));
#992=CARTESIAN_POINT('Origin',(-25.,-35.25,20.));
#993=CARTESIAN_POINT('',(-25.,-59.4144504205729,29.480230588802));
#994=CARTESIAN_POINT('',(-25.,-20.5,40.));
#995=CARTESIAN_POINT('Origin',(-25.,-55.5,15.));
#996=CARTESIAN_POINT('',(-25.,-59.5,15.));
#997=CARTESIAN_POINT('Origin',(-25.,-55.5,15.));
#998=CARTESIAN_POINT('Origin',(-27.,-55.5,15.));
#999=CARTESIAN_POINT('',(-27.,-64.,15.));
#1000=CARTESIAN_POINT('',(-27.,-64.,15.));
#1001=CARTESIAN_POINT('Origin',(-27.,-55.5,15.));
#1002=CARTESIAN_POINT('Origin',(-25.,-55.5,15.));
#1003=CARTESIAN_POINT('',(-27.,-59.5,15.));
#1004=CARTESIAN_POINT('Origin',(-27.,-55.5,15.));
#1005=CARTESIAN_POINT('',(-25.,-59.5,15.));
#1006=CARTESIAN_POINT('Origin',(-25.,-55.5,15.));
#1007=CARTESIAN_POINT('',(-25.,-59.4144504205729,29.480230588802));
#1008=CARTESIAN_POINT('Origin',(-25.,-20.5,40.));
#1009=CARTESIAN_POINT('Origin',(-27.,-35.25,20.));
#1010=CARTESIAN_POINT('Origin',(27.,-55.5,15.));
#1011=CARTESIAN_POINT('',(27.,-64.,15.));
#1012=CARTESIAN_POINT('',(27.,-64.,15.));
#1013=CARTESIAN_POINT('Origin',(27.,-55.5,15.));
#1014=CARTESIAN_POINT('Origin',(25.,-55.5,15.));
#1015=CARTESIAN_POINT('',(27.,-59.5,15.));
#1016=CARTESIAN_POINT('Origin',(27.,-55.5,15.));
#1017=CARTESIAN_POINT('',(25.,-59.5,15.));
#1018=CARTESIAN_POINT('',(25.,-59.5,15.));
#1019=CARTESIAN_POINT('Origin',(25.,-55.5,15.));
#1020=CARTESIAN_POINT('Origin',(25.,-55.5,15.));
#1021=CARTESIAN_POINT('',(25.,-59.4144504205729,29.480230588802));
#1022=CARTESIAN_POINT('Origin',(25.,-55.5,15.));
#1023=CARTESIAN_POINT('',(25.,-59.4144504205729,29.480230588802));
#1024=CARTESIAN_POINT('Origin',(25.,-20.5,40.));
#1025=CARTESIAN_POINT('',(25.,-20.5,40.));
#1026=CARTESIAN_POINT('Origin',(27.,-35.25,20.));
#1027=CARTESIAN_POINT('Origin',(25.,-35.25,20.));
#1028=UNCERTAINTY_MEASURE_WITH_UNIT(LENGTH_MEASURE(0.01),#1032,
'DISTANCE_ACCURACY_VALUE',
'Maximum model space distance between geometric entities at asserted c
onnectivities');
#1029=UNCERTAINTY_MEASURE_WITH_UNIT(LENGTH_MEASURE(0.01),#1032,
'DISTANCE_ACCURACY_VALUE',
'Maximum model space distance between geometric entities at asserted c
onnectivities');
#1030=(
GEOMETRIC_REPRESENTATION_CONTEXT(3)
GLOBAL_UNCERTAINTY_ASSIGNED_CONTEXT((#1028))
GLOBAL_UNIT_ASSIGNED_CONTEXT((#1032,#1034,#1035))
REPRESENTATION_CONTEXT('','3D')
);
#1031=(
GEOMETRIC_REPRESENTATION_CONTEXT(3)
GLOBAL_UNCERTAINTY_ASSIGNED_CONTEXT((#1029))
GLOBAL_UNIT_ASSIGNED_CONTEXT((#1032,#1034,#1035))
REPRESENTATION_CONTEXT('','3D')
);
#1032=(
LENGTH_UNIT()
NAMED_UNIT(*)
SI_UNIT(.MILLI.,.METRE.)
);
#1033=(
LENGTH_UNIT()
NAMED_UNIT(*)
SI_UNIT($,.METRE.)
);
#1034=(
NAMED_UNIT(*)
PLANE_ANGLE_UNIT()
SI_UNIT($,.RADIAN.)
);
#1035=(
NAMED_UNIT(*)
SI_UNIT($,.STERADIAN.)
SOLID_ANGLE_UNIT()
);
#1036=SHAPE_DEFINITION_REPRESENTATION(#1037,#1038);
#1037=PRODUCT_DEFINITION_SHAPE('',$,#1040);
#1038=SHAPE_REPRESENTATION('',(#618),#1030);
#1039=PRODUCT_DEFINITION_CONTEXT('part definition',#1044,'design');
#1040=PRODUCT_DEFINITION('Untitled','Untitled v3',#1041,#1039);
#1041=PRODUCT_DEFINITION_FORMATION('',$,#1046);
#1042=PRODUCT_RELATED_PRODUCT_CATEGORY('Untitled v3','Untitled v3',(#1046));
#1043=APPLICATION_PROTOCOL_DEFINITION('international standard',
'automotive_design',2009,#1044);
#1044=APPLICATION_CONTEXT(
'Core Data for Automotive Mechanical Design Process');
#1045=PRODUCT_CONTEXT('part definition',#1044,'mechanical');
#1046=PRODUCT('Untitled','Untitled v3',$,(#1045));
#1047=PRESENTATION_STYLE_ASSIGNMENT((#1049));
#1048=PRESENTATION_STYLE_ASSIGNMENT((#1050));
#1049=SURFACE_STYLE_USAGE(.BOTH.,#1051);
#1050=SURFACE_STYLE_USAGE(.BOTH.,#1052);
#1051=SURFACE_SIDE_STYLE('',(#1053));
#1052=SURFACE_SIDE_STYLE('',(#1054));
#1053=SURFACE_STYLE_FILL_AREA(#1055);
#1054=SURFACE_STYLE_FILL_AREA(#1056);
#1055=FILL_AREA_STYLE('Steel - Satin',(#1057));
#1056=FILL_AREA_STYLE('Opaque(236,236,236)',(#1058));
#1057=FILL_AREA_STYLE_COLOUR('Steel - Satin',#1059);
#1058=FILL_AREA_STYLE_COLOUR('Opaque(236,236,236)',#1060);
#1059=COLOUR_RGB('Steel - Satin',0.627450980392157,0.627450980392157,0.627450980392157);
#1060=COLOUR_RGB('Opaque(236,236,236)',0.925490196078431,0.925490196078431,
0.925490196078431);
ENDSEC;
END-ISO-10303-21;
